<svg width="995" height="695" viewBox="0 0 995 695" fill="none" xmlns="http://www.w3.org/2000/svg">
<rect y="139" width="993" height="556" fill="white"/>
<rect x="0.5" y="139.5" width="992" height="555" stroke="#16161F" stroke-opacity="0.1"/>
<path d="M699.166 158.657H700.547V159.689H699.166V162H697.895V159.689H693.362V158.944L697.819 152.047H699.166V158.657ZM694.798 158.657H697.895V153.776L697.744 154.05L694.798 158.657Z" fill="black"/>
<path d="M838.408 157.01L838.914 152.047H844.014V153.216H839.987L839.687 155.93C840.174 155.643 840.728 155.499 841.348 155.499C842.255 155.499 842.975 155.8 843.508 156.401C844.041 156.998 844.308 157.807 844.308 158.828C844.308 159.854 844.03 160.662 843.474 161.255C842.922 161.843 842.15 162.137 841.156 162.137C840.277 162.137 839.559 161.893 839.003 161.405C838.447 160.918 838.13 160.243 838.053 159.382H839.249C839.326 159.951 839.529 160.382 839.857 160.674C840.186 160.961 840.618 161.104 841.156 161.104C841.744 161.104 842.204 160.904 842.537 160.503C842.874 160.102 843.043 159.548 843.043 158.842C843.043 158.176 842.861 157.643 842.496 157.242C842.136 156.837 841.655 156.634 841.054 156.634C840.502 156.634 840.069 156.755 839.755 156.996L839.42 157.27L838.408 157.01Z" fill="black"/>
<path d="M982.79 152.04V153.113H982.558C981.573 153.132 980.789 153.423 980.206 153.988C979.623 154.553 979.285 155.349 979.194 156.374C979.718 155.772 980.434 155.472 981.341 155.472C982.207 155.472 982.897 155.777 983.412 156.388C983.932 156.998 984.191 157.787 984.191 158.753C984.191 159.778 983.911 160.599 983.351 161.214C982.795 161.829 982.047 162.137 981.108 162.137C980.156 162.137 979.383 161.772 978.791 161.043C978.199 160.309 977.902 159.366 977.902 158.213V157.728C977.902 155.896 978.292 154.496 979.071 153.53C979.855 152.56 981.02 152.063 982.564 152.04H982.79ZM981.129 156.524C980.696 156.524 980.297 156.654 979.933 156.914C979.568 157.174 979.315 157.5 979.174 157.892V158.356C979.174 159.177 979.358 159.838 979.728 160.339C980.097 160.84 980.557 161.091 981.108 161.091C981.678 161.091 982.125 160.881 982.448 160.462C982.776 160.043 982.94 159.493 982.94 158.814C982.94 158.131 982.774 157.579 982.441 157.16C982.113 156.736 981.676 156.524 981.129 156.524Z" fill="black"/>
<path d="M555.666 156.408H556.616C557.213 156.399 557.683 156.242 558.024 155.937C558.366 155.631 558.537 155.219 558.537 154.699C558.537 153.533 557.956 152.949 556.794 152.949C556.247 152.949 555.81 153.106 555.481 153.421C555.158 153.731 554.996 154.143 554.996 154.658H553.731C553.731 153.87 554.019 153.216 554.593 152.696C555.172 152.172 555.905 151.91 556.794 151.91C557.733 151.91 558.469 152.159 559.002 152.655C559.535 153.152 559.802 153.842 559.802 154.727C559.802 155.16 559.66 155.579 559.378 155.984C559.1 156.39 558.719 156.693 558.236 156.894C558.783 157.067 559.205 157.354 559.501 157.755C559.802 158.156 559.952 158.646 559.952 159.225C559.952 160.118 559.66 160.826 559.077 161.351C558.494 161.875 557.735 162.137 556.801 162.137C555.867 162.137 555.105 161.884 554.518 161.378C553.934 160.872 553.643 160.204 553.643 159.375H554.914C554.914 159.899 555.085 160.318 555.427 160.633C555.769 160.947 556.227 161.104 556.801 161.104C557.411 161.104 557.879 160.945 558.202 160.626C558.526 160.307 558.688 159.849 558.688 159.252C558.688 158.673 558.51 158.229 558.154 157.919C557.799 157.609 557.286 157.45 556.616 157.44H555.666V156.408Z" fill="black"/>
<rect y="111" width="993" height="34" fill="white"/>
<rect x="0.5" y="111.5" width="992" height="33" stroke="#16161F" stroke-opacity="0.1"/>
<rect width="995" height="70" fill="white"/>
<rect x="0.5" y="0.5" width="994" height="69" stroke="#16161F" stroke-opacity="0.1"/>
<path d="M274.983 162H273.712V153.571L271.162 154.508V153.359L274.785 151.999H274.983V162Z" fill="black"/>
<path d="M276.863 264.645C276.863 265.141 276.731 265.583 276.467 265.971C276.207 266.358 275.854 266.661 275.407 266.88C275.927 267.103 276.337 267.429 276.638 267.857C276.943 268.286 277.096 268.771 277.096 269.313C277.096 270.175 276.804 270.861 276.221 271.371C275.642 271.882 274.879 272.137 273.931 272.137C272.974 272.137 272.206 271.882 271.627 271.371C271.053 270.856 270.766 270.17 270.766 269.313C270.766 268.776 270.911 268.29 271.203 267.857C271.499 267.424 271.907 267.096 272.427 266.873C271.985 266.654 271.636 266.351 271.381 265.964C271.126 265.576 270.998 265.137 270.998 264.645C270.998 263.806 271.267 263.141 271.805 262.648C272.342 262.156 273.051 261.91 273.931 261.91C274.806 261.91 275.512 262.156 276.05 262.648C276.592 263.141 276.863 263.806 276.863 264.645ZM275.831 269.286C275.831 268.73 275.653 268.277 275.298 267.926C274.947 267.575 274.487 267.399 273.917 267.399C273.347 267.399 272.889 267.573 272.543 267.919C272.201 268.265 272.03 268.721 272.03 269.286C272.03 269.851 272.197 270.296 272.529 270.619C272.867 270.943 273.334 271.104 273.931 271.104C274.523 271.104 274.988 270.943 275.325 270.619C275.662 270.291 275.831 269.847 275.831 269.286ZM273.931 262.949C273.434 262.949 273.031 263.104 272.721 263.414C272.415 263.719 272.263 264.136 272.263 264.665C272.263 265.171 272.413 265.581 272.714 265.896C273.019 266.205 273.425 266.36 273.931 266.36C274.437 266.36 274.84 266.205 275.141 265.896C275.446 265.581 275.599 265.171 275.599 264.665C275.599 264.159 275.441 263.747 275.127 263.428C274.812 263.109 274.414 262.949 273.931 262.949Z" fill="black"/>
<path d="M133.253 262.758L129.131 272H127.805L131.913 263.086H126.526V262.047H133.253V262.758Z" fill="black"/>
<path d="M123.983 382H122.712V373.571L120.162 374.508V373.359L123.785 371.999H123.983V382ZM133.027 378.657H134.408V379.689H133.027V382H131.756V379.689H127.224V378.944L131.681 372.047H133.027V378.657ZM128.659 378.657H131.756V373.776L131.605 374.05L128.659 378.657Z" fill="black"/>
<rect x="852.5" y="252.5" width="139" height="110" fill="white" stroke="#3B3A44"/>
<path d="M971.983 276H970.712V267.571L968.162 268.508V267.359L971.785 265.999H971.983V276ZM977.527 270.408H978.478C979.075 270.399 979.544 270.242 979.886 269.937C980.228 269.631 980.398 269.219 980.398 268.699C980.398 267.533 979.817 266.949 978.655 266.949C978.108 266.949 977.671 267.106 977.343 267.421C977.019 267.731 976.857 268.143 976.857 268.658H975.593C975.593 267.87 975.88 267.216 976.454 266.696C977.033 266.172 977.767 265.91 978.655 265.91C979.594 265.91 980.33 266.159 980.863 266.655C981.396 267.152 981.663 267.842 981.663 268.727C981.663 269.16 981.522 269.579 981.239 269.984C980.961 270.39 980.581 270.693 980.098 270.894C980.645 271.067 981.066 271.354 981.362 271.755C981.663 272.156 981.813 272.646 981.813 273.225C981.813 274.118 981.522 274.826 980.938 275.351C980.355 275.875 979.596 276.137 978.662 276.137C977.728 276.137 976.967 275.884 976.379 275.378C975.796 274.872 975.504 274.204 975.504 273.375H976.775C976.775 273.899 976.946 274.318 977.288 274.633C977.63 274.947 978.088 275.104 978.662 275.104C979.273 275.104 979.74 274.945 980.063 274.626C980.387 274.307 980.549 273.849 980.549 273.252C980.549 272.673 980.371 272.229 980.016 271.919C979.66 271.609 979.147 271.45 978.478 271.44H977.527V270.408Z" fill="black"/>
<path d="M126.349 490H119.827V489.091L123.272 485.263C123.783 484.684 124.134 484.215 124.325 483.854C124.521 483.49 124.619 483.114 124.619 482.727C124.619 482.207 124.462 481.781 124.147 481.448C123.833 481.116 123.414 480.949 122.89 480.949C122.261 480.949 121.771 481.129 121.42 481.489C121.074 481.845 120.9 482.341 120.9 482.979H119.636C119.636 482.063 119.93 481.323 120.518 480.758C121.11 480.193 121.901 479.91 122.89 479.91C123.815 479.91 124.546 480.154 125.084 480.642C125.622 481.125 125.891 481.77 125.891 482.576C125.891 483.556 125.266 484.723 124.018 486.076L121.352 488.968H126.349V490ZM131.845 490H130.573V481.571L128.023 482.508V481.359L131.646 479.999H131.845V490Z" fill="black"/>
<path d="M418.349 162H411.827V161.091L415.272 157.263C415.783 156.684 416.134 156.215 416.325 155.854C416.521 155.49 416.619 155.114 416.619 154.727C416.619 154.207 416.462 153.781 416.147 153.448C415.833 153.116 415.414 152.949 414.89 152.949C414.261 152.949 413.771 153.129 413.42 153.489C413.074 153.845 412.9 154.341 412.9 154.979H411.636C411.636 154.063 411.93 153.323 412.518 152.758C413.11 152.193 413.901 151.91 414.89 151.91C415.815 151.91 416.546 152.154 417.084 152.642C417.622 153.125 417.891 153.77 417.891 154.576C417.891 155.556 417.266 156.723 416.018 158.076L413.352 160.968H418.349V162Z" fill="black"/>
<path d="M69.5059 132H68.375V124.395H64.168V132H63.043V123.469H69.5059V132ZM76.5664 132H75.4824V129.293H72.5703V132H71.4805V125.66H72.5703V128.408H75.4824V125.66H76.5664V132Z" fill="black" fill-opacity="0.5"/>
<path d="M635.506 132H634.375V124.395H630.168V132H629.043V123.469H635.506V132ZM642.098 126.539H639.971V132H638.887V126.539H636.801V125.66H642.098V126.539Z" fill="black" fill-opacity="0.5"/>
<path d="M498.172 123.469V132H497.041V128.467C496.631 128.584 496.258 128.666 495.922 128.713C495.586 128.756 495.203 128.777 494.773 128.777C493.801 128.777 493.078 128.566 492.605 128.145C492.133 127.723 491.891 127.076 491.879 126.205V123.469H493.01V126.176C493.014 126.77 493.148 127.197 493.414 127.459C493.684 127.721 494.137 127.852 494.773 127.852C495.516 127.852 496.271 127.746 497.041 127.535V123.469H498.172ZM504.746 126.539H502.619V132H501.535V126.539H499.449V125.66H504.746V126.539Z" fill="black" fill-opacity="0.5"/>
<path d="M356.266 129.293C356.16 130.195 355.826 130.893 355.264 131.385C354.705 131.873 353.961 132.117 353.031 132.117C352.023 132.117 351.215 131.756 350.605 131.033C350 130.311 349.697 129.344 349.697 128.133V127.312C349.697 126.52 349.838 125.822 350.119 125.221C350.404 124.619 350.807 124.158 351.326 123.838C351.846 123.514 352.447 123.352 353.131 123.352C354.037 123.352 354.764 123.605 355.311 124.113C355.857 124.617 356.176 125.316 356.266 126.211H355.135C355.037 125.531 354.824 125.039 354.496 124.734C354.172 124.43 353.717 124.277 353.131 124.277C352.412 124.277 351.848 124.543 351.438 125.074C351.031 125.605 350.828 126.361 350.828 127.342V128.168C350.828 129.094 351.021 129.83 351.408 130.377C351.795 130.924 352.336 131.197 353.031 131.197C353.656 131.197 354.135 131.057 354.467 130.775C354.803 130.49 355.025 129.996 355.135 129.293H356.266ZM362.992 128.9C362.992 129.865 362.771 130.643 362.33 131.232C361.889 131.822 361.291 132.117 360.537 132.117C359.768 132.117 359.162 131.873 358.721 131.385V134.438H357.637V125.66H358.627L358.68 126.363C359.121 125.816 359.734 125.543 360.52 125.543C361.281 125.543 361.883 125.83 362.324 126.404C362.77 126.979 362.992 127.777 362.992 128.801V128.9ZM361.908 128.777C361.908 128.062 361.756 127.498 361.451 127.084C361.146 126.67 360.729 126.463 360.197 126.463C359.541 126.463 359.049 126.754 358.721 127.336V130.365C359.045 130.943 359.541 131.232 360.209 131.232C360.729 131.232 361.141 131.027 361.445 130.617C361.754 130.203 361.908 129.59 361.908 128.777Z" fill="black" fill-opacity="0.5"/>
<path d="M203.99 132V123.469H206.779C207.705 123.469 208.4 123.66 208.865 124.043C209.334 124.426 209.568 124.992 209.568 125.742C209.568 126.141 209.455 126.494 209.229 126.803C209.002 127.107 208.693 127.344 208.303 127.512C208.764 127.641 209.127 127.887 209.393 128.25C209.662 128.609 209.797 129.039 209.797 129.539C209.797 130.305 209.549 130.906 209.053 131.344C208.557 131.781 207.855 132 206.949 132H203.99ZM205.115 128.01V131.08H206.973C207.496 131.08 207.908 130.945 208.209 130.676C208.514 130.402 208.666 130.027 208.666 129.551C208.666 128.523 208.107 128.01 206.99 128.01H205.115ZM205.115 127.107H206.814C207.307 127.107 207.699 126.984 207.992 126.738C208.289 126.492 208.438 126.158 208.438 125.736C208.438 125.268 208.301 124.928 208.027 124.717C207.754 124.502 207.338 124.395 206.779 124.395H205.115V127.107ZM216.008 126.539H213.881V132H212.797V126.539H210.711V125.66H216.008V126.539Z" fill="black" fill-opacity="0.5"/>
<line y1="252.5" x2="993" y2="252.5" stroke="#16161F" stroke-opacity="0.1"/>
<line x1="852.5" y1="111" x2="852.5" y2="695" stroke="#16161F" stroke-opacity="0.1"/>
<line x1="710.5" y1="111" x2="710.5" y2="695" stroke="#16161F" stroke-opacity="0.1"/>
<line x1="426.5" y1="111" x2="426.5" y2="695" stroke="#16161F" stroke-opacity="0.1"/>
<line x1="568.5" y1="111" x2="568.5" y2="695" stroke="#16161F" stroke-opacity="0.1"/>
<line x1="142.5" y1="111" x2="142.5" y2="695" stroke="#16161F" stroke-opacity="0.1"/>
<line x1="284.5" y1="111" x2="284.5" y2="695" stroke="#16161F" stroke-opacity="0.1"/>
<line y1="363.5" x2="993" y2="363.5" stroke="#16161F" stroke-opacity="0.1"/>
<line y1="473.5" x2="993" y2="473.5" stroke="#16161F" stroke-opacity="0.1"/>
<line y1="584.5" x2="993" y2="584.5" stroke="#16161F" stroke-opacity="0.1"/>
<g filter="url(#filter0_d)">
<rect x="777" y="17" width="197" height="38" rx="5" fill="#D61A1A"/>
<rect x="777.5" y="17.5" width="196" height="37" rx="4.5" stroke="#BDBDBD"/>
</g>
<path d="M810.729 41V43.444H809.39L809.247 40.662V39.726H809.637C809.732 39.6913 809.828 39.6177 809.923 39.505C810.027 39.3923 810.127 39.219 810.222 38.985C810.326 38.751 810.43 38.452 810.534 38.088C810.638 37.724 810.742 37.2733 810.846 36.736C810.924 36.3373 810.989 35.9733 811.041 35.644C811.102 35.3147 811.158 34.9897 811.21 34.669C811.271 34.3397 811.327 34.006 811.379 33.668C811.44 33.3213 811.505 32.9313 811.574 32.498H816.254V39.726H817.255V40.662L817.112 43.444H815.773V41H810.729ZM812.198 36.944C811.964 38.192 811.661 39.1193 811.288 39.726H814.746V33.772H812.744C812.692 34.0753 812.644 34.357 812.601 34.617C812.558 34.8683 812.514 35.1153 812.471 35.358C812.436 35.6007 812.397 35.8477 812.354 36.099C812.311 36.3503 812.259 36.632 812.198 36.944ZM821.22 41.156C820.822 41.156 820.44 41.0823 820.076 40.935C819.712 40.7877 819.387 40.571 819.101 40.285C818.824 39.999 818.603 39.648 818.438 39.232C818.274 38.816 818.191 38.3437 818.191 37.815C818.191 37.2863 818.274 36.814 818.438 36.398C818.603 35.982 818.824 35.631 819.101 35.345C819.387 35.059 819.712 34.8423 820.076 34.695C820.44 34.539 820.822 34.461 821.22 34.461C821.619 34.461 822 34.539 822.364 34.695C822.737 34.8423 823.062 35.059 823.339 35.345C823.617 35.631 823.838 35.982 824.002 36.398C824.176 36.814 824.262 37.2863 824.262 37.815C824.262 38.3437 824.176 38.816 824.002 39.232C823.838 39.648 823.617 39.999 823.339 40.285C823.062 40.571 822.737 40.7877 822.364 40.935C822 41.0823 821.619 41.156 821.22 41.156ZM821.22 39.934C821.688 39.934 822.057 39.7433 822.325 39.362C822.594 38.972 822.728 38.4563 822.728 37.815C822.728 37.165 822.594 36.6493 822.325 36.268C822.057 35.878 821.688 35.683 821.22 35.683C820.752 35.683 820.384 35.878 820.115 36.268C819.855 36.6493 819.725 37.165 819.725 37.815C819.725 38.4563 819.855 38.972 820.115 39.362C820.384 39.7433 820.752 39.934 821.22 39.934ZM828.498 41.156C827.51 41.156 826.747 40.8007 826.21 40.09C825.681 39.3793 825.417 38.374 825.417 37.074C825.417 36.0513 825.512 35.2237 825.703 34.591C825.894 33.9497 826.162 33.4427 826.509 33.07C826.864 32.6973 827.289 32.4287 827.783 32.264C828.277 32.0907 828.823 31.9607 829.421 31.874C829.612 31.848 829.772 31.822 829.902 31.796C830.041 31.77 830.162 31.744 830.266 31.718C830.379 31.692 830.478 31.6617 830.565 31.627C830.66 31.5923 830.756 31.5533 830.851 31.51L831.15 32.836C830.977 32.9573 830.764 33.0527 830.513 33.122C830.27 33.1827 830.01 33.2347 829.733 33.278C829.248 33.3473 828.836 33.4167 828.498 33.486C828.169 33.5553 827.891 33.6767 827.666 33.85C827.449 34.0147 827.28 34.2487 827.159 34.552C827.038 34.8553 826.951 35.2757 826.899 35.813C827.15 35.5097 827.449 35.28 827.796 35.124C828.143 34.968 828.507 34.89 828.888 34.89C829.243 34.89 829.573 34.955 829.876 35.085C830.188 35.215 830.457 35.41 830.682 35.67C830.907 35.9213 831.081 36.2333 831.202 36.606C831.332 36.97 831.397 37.3903 831.397 37.867C831.397 38.361 831.323 38.8117 831.176 39.219C831.029 39.6263 830.825 39.973 830.565 40.259C830.305 40.545 829.997 40.766 829.642 40.922C829.287 41.078 828.905 41.156 828.498 41.156ZM828.485 39.934C828.901 39.934 829.235 39.7477 829.486 39.375C829.737 38.9937 829.863 38.491 829.863 37.867C829.863 37.243 829.742 36.7793 829.499 36.476C829.256 36.1727 828.914 36.021 828.472 36.021C828.203 36.021 827.926 36.0903 827.64 36.229C827.363 36.359 827.098 36.606 826.847 36.97V37.399C826.847 38.231 826.986 38.8637 827.263 39.297C827.54 39.7217 827.948 39.934 828.485 39.934ZM834.348 41.156C833.784 41.156 833.329 40.987 832.983 40.649C832.636 40.3023 832.463 39.8473 832.463 39.284C832.463 38.946 832.532 38.647 832.671 38.387C832.818 38.1183 833.043 37.8887 833.347 37.698C833.659 37.5073 834.049 37.347 834.517 37.217C834.993 37.087 835.561 36.9873 836.22 36.918C836.211 36.7533 836.185 36.5973 836.142 36.45C836.107 36.294 836.042 36.1597 835.947 36.047C835.86 35.9257 835.743 35.8347 835.596 35.774C835.448 35.7047 835.266 35.67 835.05 35.67C834.738 35.67 834.43 35.7307 834.127 35.852C833.832 35.9733 833.542 36.1207 833.256 36.294L832.71 35.293C833.065 35.0677 833.464 34.8727 833.906 34.708C834.348 34.5433 834.824 34.461 835.336 34.461C836.133 34.461 836.727 34.6993 837.117 35.176C837.515 35.644 837.715 36.3243 837.715 37.217V41H836.48L836.376 40.298H836.324C836.038 40.5407 835.73 40.7443 835.401 40.909C835.08 41.0737 834.729 41.156 834.348 41.156ZM834.829 39.986C835.089 39.986 835.323 39.9253 835.531 39.804C835.747 39.6827 835.977 39.5093 836.22 39.284V37.854C835.786 37.906 835.422 37.9753 835.128 38.062C834.833 38.1487 834.595 38.2483 834.413 38.361C834.231 38.465 834.101 38.5863 834.023 38.725C833.945 38.8637 833.906 39.011 833.906 39.167C833.906 39.453 833.992 39.661 834.166 39.791C834.339 39.921 834.56 39.986 834.829 39.986ZM839.504 41V34.617H842.091C842.446 34.617 842.771 34.6473 843.066 34.708C843.369 34.76 843.629 34.851 843.846 34.981C844.071 35.111 844.244 35.2843 844.366 35.501C844.496 35.709 844.561 35.9647 844.561 36.268C844.561 36.58 844.47 36.8573 844.288 37.1C844.114 37.334 843.85 37.503 843.495 37.607V37.659C843.876 37.7543 844.192 37.919 844.444 38.153C844.695 38.387 844.821 38.725 844.821 39.167C844.821 39.4877 844.751 39.765 844.613 39.999C844.483 40.2243 844.301 40.415 844.067 40.571C843.833 40.7183 843.555 40.8267 843.235 40.896C842.923 40.9653 842.585 41 842.221 41H839.504ZM840.973 37.204H841.948C842.364 37.204 842.663 37.1347 842.845 36.996C843.027 36.8573 843.118 36.6667 843.118 36.424C843.118 36.1727 843.031 35.9777 842.858 35.839C842.684 35.7003 842.394 35.631 841.987 35.631H840.973V37.204ZM840.973 39.986H842.117C842.55 39.986 842.862 39.9037 843.053 39.739C843.252 39.5743 843.352 39.3533 843.352 39.076C843.352 38.816 843.248 38.608 843.04 38.452C842.832 38.296 842.507 38.218 842.065 38.218H840.973V39.986ZM846.232 41V34.617H847.688V36.814C847.688 37.1433 847.671 37.5117 847.636 37.919C847.61 38.3177 847.584 38.7207 847.558 39.128H847.597C847.71 38.9287 847.844 38.7033 848 38.452C848.156 38.192 848.286 37.9667 848.39 37.776L850.418 34.617H851.796V41H850.34V38.803C850.34 38.4737 850.353 38.1097 850.379 37.711C850.414 37.3037 850.449 36.8963 850.483 36.489H850.431C850.319 36.6883 850.184 36.918 850.028 37.178C849.881 37.4293 849.751 37.6503 849.638 37.841L847.61 41H846.232ZM855.088 41V35.8H853.086V34.617H858.598V35.8H856.596V41H855.088ZM859.88 41V34.617H861.375V36.801H862.337C862.718 36.801 863.069 36.84 863.39 36.918C863.719 36.996 864.001 37.1173 864.235 37.282C864.469 37.4467 864.651 37.6633 864.781 37.932C864.911 38.192 864.976 38.5083 864.976 38.881C864.976 39.2623 864.911 39.5873 864.781 39.856C864.651 40.1247 864.469 40.3457 864.235 40.519C864.001 40.6837 863.719 40.805 863.39 40.883C863.069 40.961 862.718 41 862.337 41H859.88ZM861.375 39.843H862.233C863.099 39.843 863.533 39.518 863.533 38.868C863.533 38.244 863.099 37.932 862.233 37.932H861.375V39.843ZM869.033 41V34.617H870.749L871.776 37.191C871.871 37.4597 871.958 37.7153 872.036 37.958C872.123 38.2007 872.205 38.4433 872.283 38.686H872.335C872.422 38.4433 872.508 38.2007 872.595 37.958C872.69 37.7153 872.777 37.4597 872.855 37.191L873.83 34.617H875.546V41H874.194V38.764C874.194 38.608 874.198 38.426 874.207 38.218C874.224 38.0013 874.242 37.7803 874.259 37.555C874.276 37.321 874.294 37.0957 874.311 36.879C874.328 36.6537 874.346 36.4543 874.363 36.281H874.311C874.216 36.5497 874.112 36.8313 873.999 37.126C873.895 37.412 873.795 37.6807 873.7 37.932L872.738 40.428H871.854L870.866 37.932C870.771 37.6807 870.667 37.4077 870.554 37.113C870.45 36.8183 870.35 36.541 870.255 36.281H870.203C870.212 36.4543 870.225 36.6537 870.242 36.879C870.268 37.0957 870.285 37.321 870.294 37.555C870.311 37.7803 870.324 38.0013 870.333 38.218C870.35 38.426 870.359 38.608 870.359 38.764V41H869.033ZM880.18 41.156C879.738 41.156 879.326 41.0823 878.945 40.935C878.564 40.779 878.23 40.558 877.944 40.272C877.658 39.986 877.433 39.6393 877.268 39.232C877.112 38.816 877.034 38.3437 877.034 37.815C877.034 37.295 877.116 36.827 877.281 36.411C877.446 35.995 877.662 35.644 877.931 35.358C878.208 35.072 878.525 34.851 878.88 34.695C879.235 34.539 879.599 34.461 879.972 34.461C880.405 34.461 880.787 34.5347 881.116 34.682C881.445 34.8293 881.718 35.0373 881.935 35.306C882.16 35.5747 882.329 35.8953 882.442 36.268C882.555 36.6407 882.611 37.048 882.611 37.49C882.611 37.6373 882.602 37.776 882.585 37.906C882.576 38.036 882.563 38.14 882.546 38.218H878.49C878.559 38.79 878.759 39.232 879.088 39.544C879.426 39.8473 879.855 39.999 880.375 39.999C880.652 39.999 880.908 39.96 881.142 39.882C881.385 39.7953 881.623 39.6783 881.857 39.531L882.364 40.467C882.061 40.6663 881.723 40.831 881.35 40.961C880.977 41.091 880.587 41.156 880.18 41.156ZM878.477 37.204H881.311C881.311 36.71 881.203 36.3243 880.986 36.047C880.778 35.761 880.453 35.618 880.011 35.618C879.63 35.618 879.296 35.7523 879.01 36.021C878.724 36.2897 878.546 36.684 878.477 37.204ZM884.039 43.522V34.617H885.274L885.378 35.293H885.43C885.699 35.0677 885.998 34.8727 886.327 34.708C886.656 34.5433 886.999 34.461 887.354 34.461C887.753 34.461 888.104 34.539 888.407 34.695C888.719 34.8423 888.983 35.059 889.2 35.345C889.417 35.631 889.581 35.9733 889.694 36.372C889.807 36.7707 889.863 37.217 889.863 37.711C889.863 38.257 889.785 38.7467 889.629 39.18C889.482 39.6047 889.282 39.9643 889.031 40.259C888.78 40.545 888.489 40.766 888.16 40.922C887.831 41.078 887.488 41.156 887.133 41.156C886.856 41.156 886.578 41.0953 886.301 40.974C886.024 40.8527 885.755 40.6793 885.495 40.454L885.534 41.52V43.522H884.039ZM886.821 39.921C887.246 39.921 887.601 39.739 887.887 39.375C888.173 39.0023 888.316 38.452 888.316 37.724C888.316 37.0827 888.208 36.5843 887.991 36.229C887.774 35.8737 887.423 35.696 886.938 35.696C886.487 35.696 886.019 35.9343 885.534 36.411V39.388C885.768 39.5873 885.993 39.726 886.21 39.804C886.427 39.882 886.63 39.921 886.821 39.921ZM893.99 41.156C893.591 41.156 893.21 41.0823 892.846 40.935C892.482 40.7877 892.157 40.571 891.871 40.285C891.593 39.999 891.372 39.648 891.208 39.232C891.043 38.816 890.961 38.3437 890.961 37.815C890.961 37.2863 891.043 36.814 891.208 36.398C891.372 35.982 891.593 35.631 891.871 35.345C892.157 35.059 892.482 34.8423 892.846 34.695C893.21 34.539 893.591 34.461 893.99 34.461C894.388 34.461 894.77 34.539 895.134 34.695C895.506 34.8423 895.831 35.059 896.109 35.345C896.386 35.631 896.607 35.982 896.772 36.398C896.945 36.814 897.032 37.2863 897.032 37.815C897.032 38.3437 896.945 38.816 896.772 39.232C896.607 39.648 896.386 39.999 896.109 40.285C895.831 40.571 895.506 40.7877 895.134 40.935C894.77 41.0823 894.388 41.156 893.99 41.156ZM893.99 39.934C894.458 39.934 894.826 39.7433 895.095 39.362C895.363 38.972 895.498 38.4563 895.498 37.815C895.498 37.165 895.363 36.6493 895.095 36.268C894.826 35.878 894.458 35.683 893.99 35.683C893.522 35.683 893.153 35.878 892.885 36.268C892.625 36.6493 892.495 37.165 892.495 37.815C892.495 38.4563 892.625 38.972 892.885 39.362C893.153 39.7433 893.522 39.934 893.99 39.934ZM898.512 41V34.617H903.933V41H902.438V35.8H900.007V41H898.512ZM905.849 43.522V34.617H907.084L907.188 35.293H907.24C907.509 35.0677 907.808 34.8727 908.137 34.708C908.467 34.5433 908.809 34.461 909.164 34.461C909.563 34.461 909.914 34.539 910.217 34.695C910.529 34.8423 910.794 35.059 911.01 35.345C911.227 35.631 911.392 35.9733 911.504 36.372C911.617 36.7707 911.673 37.217 911.673 37.711C911.673 38.257 911.595 38.7467 911.439 39.18C911.292 39.6047 911.093 39.9643 910.841 40.259C910.59 40.545 910.3 40.766 909.97 40.922C909.641 41.078 909.299 41.156 908.943 41.156C908.666 41.156 908.389 41.0953 908.111 40.974C907.834 40.8527 907.565 40.6793 907.305 40.454L907.344 41.52V43.522H905.849ZM908.631 39.921C909.056 39.921 909.411 39.739 909.697 39.375C909.983 39.0023 910.126 38.452 910.126 37.724C910.126 37.0827 910.018 36.5843 909.801 36.229C909.585 35.8737 909.234 35.696 908.748 35.696C908.298 35.696 907.83 35.9343 907.344 36.411V39.388C907.578 39.5873 907.804 39.726 908.02 39.804C908.237 39.882 908.441 39.921 908.631 39.921ZM913.187 41V34.617H914.643V36.814C914.643 37.1433 914.626 37.5117 914.591 37.919C914.565 38.3177 914.539 38.7207 914.513 39.128H914.552C914.665 38.9287 914.799 38.7033 914.955 38.452C915.111 38.192 915.241 37.9667 915.345 37.776L917.373 34.617H918.751V41H917.295V38.803C917.295 38.4737 917.308 38.1097 917.334 37.711C917.369 37.3037 917.404 36.8963 917.438 36.489H917.386C917.274 36.6883 917.139 36.918 916.983 37.178C916.836 37.4293 916.706 37.6503 916.593 37.841L914.565 41H913.187ZM924.136 41V38.712H923.2H923.174L921.679 41H920.002L921.809 38.452C921.445 38.296 921.142 38.0707 920.899 37.776C920.665 37.4813 920.548 37.0957 920.548 36.619C920.548 36.2463 920.613 35.9343 920.743 35.683C920.882 35.423 921.064 35.215 921.289 35.059C921.523 34.903 921.796 34.7903 922.108 34.721C922.429 34.6517 922.771 34.617 923.135 34.617H925.631V41H924.136ZM923.343 37.659H924.136V35.735H923.343C922.927 35.735 922.602 35.8087 922.368 35.956C922.143 36.1033 922.03 36.3373 922.03 36.658C922.03 36.97 922.143 37.217 922.368 37.399C922.602 37.5723 922.927 37.659 923.343 37.659ZM928.937 41V35.8H926.935V34.617H932.447V35.8H930.445V41H928.937ZM933.728 41V34.617H935.184V36.814C935.184 37.1433 935.167 37.5117 935.132 37.919C935.106 38.3177 935.08 38.7207 935.054 39.128H935.093C935.206 38.9287 935.34 38.7033 935.496 38.452C935.652 38.192 935.782 37.9667 935.886 37.776L937.914 34.617H939.292V41H937.836V38.803C937.836 38.4737 937.849 38.1097 937.875 37.711C937.91 37.3037 937.945 36.8963 937.979 36.489H937.927C937.815 36.6883 937.68 36.918 937.524 37.178C937.377 37.4293 937.247 37.6503 937.134 37.841L935.106 41H933.728ZM943.923 41.156C943.481 41.156 943.069 41.0823 942.688 40.935C942.307 40.779 941.973 40.558 941.687 40.272C941.401 39.986 941.176 39.6393 941.011 39.232C940.855 38.816 940.777 38.3437 940.777 37.815C940.777 37.295 940.859 36.827 941.024 36.411C941.189 35.995 941.405 35.644 941.674 35.358C941.951 35.072 942.268 34.851 942.623 34.695C942.978 34.539 943.342 34.461 943.715 34.461C944.148 34.461 944.53 34.5347 944.859 34.682C945.188 34.8293 945.461 35.0373 945.678 35.306C945.903 35.5747 946.072 35.8953 946.185 36.268C946.298 36.6407 946.354 37.048 946.354 37.49C946.354 37.6373 946.345 37.776 946.328 37.906C946.319 38.036 946.306 38.14 946.289 38.218H942.233C942.302 38.79 942.502 39.232 942.831 39.544C943.169 39.8473 943.598 39.999 944.118 39.999C944.395 39.999 944.651 39.96 944.885 39.882C945.128 39.7953 945.366 39.6783 945.6 39.531L946.107 40.467C945.804 40.6663 945.466 40.831 945.093 40.961C944.72 41.091 944.33 41.156 943.923 41.156ZM942.22 37.204H945.054C945.054 36.71 944.946 36.3243 944.729 36.047C944.521 35.761 944.196 35.618 943.754 35.618C943.373 35.618 943.039 35.7523 942.753 36.021C942.467 36.2897 942.289 36.684 942.22 37.204Z" fill="white"/>
<rect x="628" y="17" width="102" height="38" rx="5" fill="white"/>
<rect x="628.5" y="17.5" width="101" height="37" rx="4.5" stroke="#16161F" stroke-opacity="0.1"/>
<path d="M641.17 41V32.472H642.249V36.047H646.214V32.472H647.306V41H646.214V36.983H642.249V41H641.17ZM652.107 41.156C651.683 41.156 651.284 41.0823 650.911 40.935C650.547 40.779 650.227 40.5623 649.949 40.285C649.681 39.999 649.468 39.6523 649.312 39.245C649.156 38.8377 649.078 38.374 649.078 37.854C649.078 37.334 649.156 36.8703 649.312 36.463C649.477 36.047 649.689 35.696 649.949 35.41C650.218 35.124 650.521 34.9073 650.859 34.76C651.197 34.604 651.548 34.526 651.912 34.526C652.311 34.526 652.666 34.5953 652.978 34.734C653.299 34.8727 653.563 35.072 653.771 35.332C653.988 35.592 654.153 35.904 654.265 36.268C654.378 36.632 654.434 37.0393 654.434 37.49C654.434 37.6027 654.43 37.7153 654.421 37.828C654.421 37.932 654.413 38.023 654.395 38.101H650.131C650.175 38.777 650.383 39.3143 650.755 39.713C651.137 40.103 651.631 40.298 652.237 40.298C652.541 40.298 652.818 40.2547 653.069 40.168C653.329 40.0727 653.576 39.9513 653.81 39.804L654.187 40.506C653.91 40.6793 653.602 40.831 653.264 40.961C652.926 41.091 652.541 41.156 652.107 41.156ZM650.118 37.334H653.498C653.498 36.6927 653.36 36.2073 653.082 35.878C652.814 35.54 652.432 35.371 651.938 35.371C651.713 35.371 651.496 35.4143 651.288 35.501C651.089 35.5877 650.907 35.7177 650.742 35.891C650.578 36.0557 650.439 36.2593 650.326 36.502C650.222 36.7447 650.153 37.022 650.118 37.334ZM656.217 41V43.236H655.294L655.177 40.805V40.129H655.489C655.575 40.077 655.658 40.0077 655.736 39.921C655.822 39.8257 655.9 39.6827 655.97 39.492C656.039 39.3013 656.108 39.0457 656.178 38.725C656.247 38.4043 656.312 37.9883 656.373 37.477L656.711 34.682H660.637V40.129H661.56V40.805L661.456 43.236H660.533V41H656.217ZM657.309 37.685C657.239 38.309 657.144 38.816 657.023 39.206C656.91 39.596 656.78 39.9037 656.633 40.129H659.571V35.553H657.556L657.309 37.685ZM665.476 41.156C665.051 41.156 664.652 41.0823 664.28 40.935C663.916 40.779 663.595 40.5623 663.318 40.285C663.049 39.999 662.837 39.6523 662.681 39.245C662.525 38.8377 662.447 38.374 662.447 37.854C662.447 37.334 662.525 36.8703 662.681 36.463C662.845 36.047 663.058 35.696 663.318 35.41C663.586 35.124 663.89 34.9073 664.228 34.76C664.566 34.604 664.917 34.526 665.281 34.526C665.679 34.526 666.035 34.5953 666.347 34.734C666.667 34.8727 666.932 35.072 667.14 35.332C667.356 35.592 667.521 35.904 667.634 36.268C667.746 36.632 667.803 37.0393 667.803 37.49C667.803 37.6027 667.798 37.7153 667.79 37.828C667.79 37.932 667.781 38.023 667.764 38.101H663.5C663.543 38.777 663.751 39.3143 664.124 39.713C664.505 40.103 664.999 40.298 665.606 40.298C665.909 40.298 666.186 40.2547 666.438 40.168C666.698 40.0727 666.945 39.9513 667.179 39.804L667.556 40.506C667.278 40.6793 666.971 40.831 666.633 40.961C666.295 41.091 665.909 41.156 665.476 41.156ZM663.487 37.334H666.867C666.867 36.6927 666.728 36.2073 666.451 35.878C666.182 35.54 665.801 35.371 665.307 35.371C665.081 35.371 664.865 35.4143 664.657 35.501C664.457 35.5877 664.275 35.7177 664.111 35.891C663.946 36.0557 663.807 36.2593 663.695 36.502C663.591 36.7447 663.521 37.022 663.487 37.334ZM669 41.156C668.879 41.156 668.775 41.1473 668.688 41.13C668.61 41.1127 668.523 41.0867 668.428 41.052L668.636 40.064C668.679 40.0813 668.723 40.0943 668.766 40.103C668.809 40.1117 668.861 40.116 668.922 40.116C669.147 40.116 669.329 40.012 669.468 39.804C669.607 39.5873 669.706 39.245 669.767 38.777C669.854 38.0923 669.936 37.412 670.014 36.736C670.092 36.0513 670.17 35.3667 670.248 34.682H674.135V41H673.056V35.553H671.093C671.024 36.1337 670.954 36.7187 670.885 37.308C670.816 37.8887 670.746 38.4693 670.677 39.05C670.495 40.454 669.936 41.156 669 41.156ZM679.754 41V38.504H678.584H678.571L676.829 41H675.62L677.544 38.361C677.137 38.2397 676.794 38.036 676.517 37.75C676.24 37.4553 676.101 37.0567 676.101 36.554C676.101 36.2073 676.162 35.917 676.283 35.683C676.413 35.4403 676.586 35.2453 676.803 35.098C677.028 34.9507 677.293 34.8467 677.596 34.786C677.899 34.7167 678.229 34.682 678.584 34.682H680.82V41H679.754ZM678.766 37.724H679.754V35.514H678.766C678.272 35.514 677.882 35.6007 677.596 35.774C677.319 35.9387 677.18 36.2073 677.18 36.58C677.18 36.9527 677.319 37.2387 677.596 37.438C677.882 37.6287 678.272 37.724 678.766 37.724Z" fill="black"/>
<rect x="703" y="30" width="15" height="16"/>
<rect x="216" y="39" width="14" height="12" transform="rotate(-180 216 39)"/>
<rect x="37" y="27" width="14" height="12"/>
<path d="M78.4078 39.216C77.6398 39.216 76.9378 39.078 76.3018 38.802C75.6658 38.514 75.1198 38.106 74.6638 37.578C74.2078 37.038 73.8538 36.39 73.6018 35.634C73.3498 34.878 73.2238 34.02 73.2238 33.06C73.2238 32.112 73.3498 31.266 73.6018 30.522C73.8538 29.766 74.2078 29.13 74.6638 28.614C75.1198 28.098 75.6658 27.702 76.3018 27.426C76.9378 27.15 77.6398 27.012 78.4078 27.012C79.1758 27.012 79.8778 27.15 80.5138 27.426C81.1498 27.702 81.6958 28.098 82.1518 28.614C82.6198 29.13 82.9798 29.766 83.2318 30.522C83.4838 31.266 83.6098 32.112 83.6098 33.06C83.6098 34.02 83.4838 34.878 83.2318 35.634C82.9798 36.39 82.6198 37.038 82.1518 37.578C81.6958 38.106 81.1498 38.514 80.5138 38.802C79.8778 39.078 79.1758 39.216 78.4078 39.216ZM78.4078 37.398C78.8758 37.398 79.2958 37.296 79.6678 37.092C80.0398 36.888 80.3578 36.6 80.6218 36.228C80.8858 35.844 81.0898 35.388 81.2338 34.86C81.3778 34.32 81.4498 33.72 81.4498 33.06C81.4498 31.74 81.1738 30.708 80.6218 29.964C80.0818 29.208 79.3438 28.83 78.4078 28.83C77.4718 28.83 76.7278 29.208 76.1758 29.964C75.6358 30.708 75.3658 31.74 75.3658 33.06C75.3658 33.72 75.4378 34.32 75.5818 34.86C75.7258 35.388 75.9298 35.844 76.1938 36.228C76.4578 36.6 76.7758 36.888 77.1478 37.092C77.5198 37.296 77.9398 37.398 78.4078 37.398ZM85.7847 39V30.162H87.8547V33.6H89.1507L89.9787 31.818C90.1467 31.434 90.3207 31.122 90.5007 30.882C90.6927 30.642 90.8907 30.456 91.0947 30.324C91.2987 30.18 91.5207 30.084 91.7607 30.036C92.0007 29.976 92.2587 29.946 92.5347 29.946C92.7747 29.946 92.9847 29.982 93.1647 30.054L92.8227 31.98C92.7147 31.944 92.6067 31.926 92.4987 31.926C92.2827 31.926 92.0787 31.992 91.8867 32.124C91.6947 32.244 91.5027 32.526 91.3107 32.97L90.6987 34.338L93.7047 39H91.4187L89.1867 35.256H87.8547V39H85.7847ZM96.7107 39V31.8H93.9387V30.162H101.571V31.8H98.7987V39H96.7107ZM107.554 39V35.832H106.258H106.222L104.152 39H101.83L104.332 35.472C103.828 35.256 103.408 34.944 103.072 34.536C102.748 34.128 102.586 33.594 102.586 32.934C102.586 32.418 102.676 31.986 102.856 31.638C103.048 31.278 103.3 30.99 103.612 30.774C103.936 30.558 104.314 30.402 104.746 30.306C105.19 30.21 105.664 30.162 106.168 30.162H109.624V39H107.554ZM106.456 34.374H107.554V31.71H106.456C105.88 31.71 105.43 31.812 105.106 32.016C104.794 32.22 104.638 32.544 104.638 32.988C104.638 33.42 104.794 33.762 105.106 34.014C105.43 34.254 105.88 34.374 106.456 34.374ZM116.091 39.216C114.723 39.216 113.667 38.724 112.923 37.74C112.191 36.756 111.825 35.364 111.825 33.564C111.825 32.148 111.957 31.002 112.221 30.126C112.485 29.238 112.857 28.536 113.337 28.02C113.829 27.504 114.417 27.132 115.101 26.904C115.785 26.664 116.541 26.484 117.369 26.364C117.633 26.328 117.855 26.292 118.035 26.256C118.227 26.22 118.395 26.184 118.539 26.148C118.695 26.112 118.833 26.07 118.953 26.022C119.085 25.974 119.217 25.92 119.349 25.86L119.763 27.696C119.523 27.864 119.229 27.996 118.881 28.092C118.545 28.176 118.185 28.248 117.801 28.308C117.129 28.404 116.559 28.5 116.091 28.596C115.635 28.692 115.251 28.86 114.939 29.1C114.639 29.328 114.405 29.652 114.237 30.072C114.069 30.492 113.949 31.074 113.877 31.818C114.225 31.398 114.639 31.08 115.119 30.864C115.599 30.648 116.103 30.54 116.631 30.54C117.123 30.54 117.579 30.63 117.999 30.81C118.431 30.99 118.803 31.26 119.115 31.62C119.427 31.968 119.667 32.4 119.835 32.916C120.015 33.42 120.105 34.002 120.105 34.662C120.105 35.346 120.003 35.97 119.799 36.534C119.595 37.098 119.313 37.578 118.953 37.974C118.593 38.37 118.167 38.676 117.675 38.892C117.183 39.108 116.655 39.216 116.091 39.216ZM116.073 37.524C116.649 37.524 117.111 37.266 117.459 36.75C117.807 36.222 117.981 35.526 117.981 34.662C117.981 33.798 117.813 33.156 117.477 32.736C117.141 32.316 116.667 32.106 116.055 32.106C115.683 32.106 115.299 32.202 114.903 32.394C114.519 32.574 114.153 32.916 113.805 33.42V34.014C113.805 35.166 113.997 36.042 114.381 36.642C114.765 37.23 115.329 37.524 116.073 37.524ZM122.224 42.492V30.162H123.934L124.078 31.098H124.15C124.522 30.786 124.936 30.516 125.392 30.288C125.848 30.06 126.322 29.946 126.814 29.946C127.366 29.946 127.852 30.054 128.272 30.27C128.704 30.474 129.07 30.774 129.37 31.17C129.67 31.566 129.898 32.04 130.054 32.592C130.21 33.144 130.288 33.762 130.288 34.446C130.288 35.202 130.18 35.88 129.964 36.48C129.76 37.068 129.484 37.566 129.136 37.974C128.788 38.37 128.386 38.676 127.93 38.892C127.474 39.108 127 39.216 126.508 39.216C126.124 39.216 125.74 39.132 125.356 38.964C124.972 38.796 124.6 38.556 124.24 38.244L124.294 39.72V42.492H122.224ZM126.076 37.506C126.664 37.506 127.156 37.254 127.552 36.75C127.948 36.234 128.146 35.472 128.146 34.464C128.146 33.576 127.996 32.886 127.696 32.394C127.396 31.902 126.91 31.656 126.238 31.656C125.614 31.656 124.966 31.986 124.294 32.646V36.768C124.618 37.044 124.93 37.236 125.23 37.344C125.53 37.452 125.812 37.506 126.076 37.506ZM132.384 39V30.162H134.454V33.186H135.786C136.314 33.186 136.8 33.24 137.244 33.348C137.7 33.456 138.09 33.624 138.414 33.852C138.738 34.08 138.99 34.38 139.17 34.752C139.35 35.112 139.44 35.55 139.44 36.066C139.44 36.594 139.35 37.044 139.17 37.416C138.99 37.788 138.738 38.094 138.414 38.334C138.09 38.562 137.7 38.73 137.244 38.838C136.8 38.946 136.314 39 135.786 39H132.384ZM134.454 37.398H135.642C136.842 37.398 137.442 36.948 137.442 36.048C137.442 35.184 136.842 34.752 135.642 34.752H134.454V37.398ZM144.428 39V37.794C145.22 37.026 145.934 36.318 146.57 35.67C147.218 35.022 147.764 34.422 148.208 33.87C148.664 33.318 149.012 32.802 149.252 32.322C149.492 31.842 149.612 31.386 149.612 30.954C149.612 30.342 149.45 29.862 149.126 29.514C148.802 29.154 148.334 28.974 147.722 28.974C147.278 28.974 146.87 29.1 146.498 29.352C146.138 29.604 145.802 29.904 145.49 30.252L144.338 29.1C144.866 28.536 145.406 28.104 145.958 27.804C146.522 27.492 147.2 27.336 147.992 27.336C148.544 27.336 149.042 27.42 149.486 27.588C149.93 27.756 150.308 27.996 150.62 28.308C150.932 28.608 151.172 28.974 151.34 29.406C151.52 29.838 151.61 30.318 151.61 30.846C151.61 31.35 151.496 31.866 151.268 32.394C151.052 32.91 150.752 33.438 150.368 33.978C149.996 34.506 149.558 35.052 149.054 35.616C148.55 36.18 148.016 36.762 147.452 37.362C147.752 37.338 148.076 37.314 148.424 37.29C148.772 37.254 149.084 37.236 149.36 37.236H152.168V39H144.428ZM157.581 39.216C156.381 39.216 155.433 38.706 154.737 37.686C154.041 36.654 153.693 35.166 153.693 33.222C153.693 31.278 154.041 29.814 154.737 28.83C155.433 27.834 156.381 27.336 157.581 27.336C158.781 27.336 159.729 27.834 160.425 28.83C161.121 29.826 161.469 31.29 161.469 33.222C161.469 35.166 161.121 36.654 160.425 37.686C159.729 38.706 158.781 39.216 157.581 39.216ZM157.581 37.596C157.857 37.596 158.109 37.524 158.337 37.38C158.577 37.224 158.781 36.972 158.949 36.624C159.117 36.276 159.249 35.826 159.345 35.274C159.441 34.722 159.489 34.038 159.489 33.222C159.489 32.418 159.441 31.746 159.345 31.206C159.249 30.654 159.117 30.21 158.949 29.874C158.781 29.538 158.577 29.304 158.337 29.172C158.109 29.028 157.857 28.956 157.581 28.956C157.305 28.956 157.047 29.028 156.807 29.172C156.579 29.304 156.381 29.538 156.213 29.874C156.045 30.21 155.913 30.654 155.817 31.206C155.721 31.746 155.673 32.418 155.673 33.222C155.673 34.038 155.721 34.722 155.817 35.274C155.913 35.826 156.045 36.276 156.213 36.624C156.381 36.972 156.579 37.224 156.807 37.38C157.047 37.524 157.305 37.596 157.581 37.596ZM163.533 39V37.308H166.089V29.784H163.983V28.488C164.559 28.38 165.051 28.254 165.459 28.11C165.879 27.954 166.269 27.768 166.629 27.552H168.177V37.308H170.427V39H163.533ZM175.822 33.132C176.158 33.132 176.506 33.03 176.866 32.826C177.238 32.61 177.574 32.268 177.874 31.8C177.766 30.792 177.514 30.06 177.118 29.604C176.734 29.148 176.266 28.92 175.714 28.92C175.246 28.92 174.844 29.106 174.508 29.478C174.172 29.85 174.004 30.384 174.004 31.08C174.004 31.764 174.16 32.28 174.472 32.628C174.796 32.964 175.246 33.132 175.822 33.132ZM175.336 39.216C174.652 39.216 174.058 39.09 173.554 38.838C173.05 38.586 172.624 38.28 172.276 37.92L173.392 36.66C173.608 36.912 173.878 37.122 174.202 37.29C174.538 37.446 174.88 37.524 175.228 37.524C175.588 37.524 175.924 37.452 176.236 37.308C176.56 37.164 176.842 36.93 177.082 36.606C177.322 36.27 177.514 35.832 177.658 35.292C177.814 34.752 177.904 34.086 177.928 33.294C177.592 33.714 177.196 34.044 176.74 34.284C176.284 34.512 175.846 34.626 175.426 34.626C174.934 34.626 174.484 34.554 174.076 34.41C173.668 34.266 173.314 34.05 173.014 33.762C172.726 33.462 172.498 33.09 172.33 32.646C172.174 32.202 172.096 31.68 172.096 31.08C172.096 30.504 172.192 29.988 172.384 29.532C172.576 29.064 172.834 28.668 173.158 28.344C173.482 28.02 173.86 27.774 174.292 27.606C174.736 27.426 175.204 27.336 175.696 27.336C176.248 27.336 176.776 27.45 177.28 27.678C177.784 27.894 178.222 28.23 178.594 28.686C178.978 29.142 179.278 29.724 179.494 30.432C179.722 31.128 179.836 31.956 179.836 32.916C179.836 34.032 179.71 34.986 179.458 35.778C179.218 36.57 178.888 37.224 178.468 37.74C178.06 38.244 177.58 38.616 177.028 38.856C176.488 39.096 175.924 39.216 175.336 39.216Z" fill="#191919"/>
<path d="M782.266 129.293C782.16 130.195 781.826 130.893 781.264 131.385C780.705 131.873 779.961 132.117 779.031 132.117C778.023 132.117 777.215 131.756 776.605 131.033C776 130.311 775.697 129.344 775.697 128.133V127.312C775.697 126.52 775.838 125.822 776.119 125.221C776.404 124.619 776.807 124.158 777.326 123.838C777.846 123.514 778.447 123.352 779.131 123.352C780.037 123.352 780.764 123.605 781.311 124.113C781.857 124.617 782.176 125.316 782.266 126.211H781.135C781.037 125.531 780.824 125.039 780.496 124.734C780.172 124.43 779.717 124.277 779.131 124.277C778.412 124.277 777.848 124.543 777.438 125.074C777.031 125.605 776.828 126.361 776.828 127.342V128.168C776.828 129.094 777.021 129.83 777.408 130.377C777.795 130.924 778.336 131.197 779.031 131.197C779.656 131.197 780.135 131.057 780.467 130.775C780.803 130.49 781.025 129.996 781.135 129.293H782.266ZM786.42 126.023C787.217 126.023 787.854 126.291 788.33 126.826C788.811 127.357 789.051 128.059 789.051 128.93V129.029C789.051 129.627 788.936 130.162 788.705 130.635C788.475 131.104 788.143 131.469 787.709 131.73C787.279 131.988 786.783 132.117 786.221 132.117C785.369 132.117 784.684 131.834 784.164 131.268C783.645 130.697 783.385 129.934 783.385 128.977V128.449C783.385 127.117 783.631 126.059 784.123 125.273C784.619 124.488 785.35 124.01 786.314 123.838C786.861 123.74 787.23 123.621 787.422 123.48C787.613 123.34 787.709 123.146 787.709 122.9H788.6C788.6 123.389 788.488 123.77 788.266 124.043C788.047 124.316 787.695 124.51 787.211 124.623L786.402 124.805C785.758 124.957 785.273 125.215 784.949 125.578C784.629 125.938 784.42 126.418 784.322 127.02C784.896 126.355 785.596 126.023 786.42 126.023ZM786.209 126.914C785.678 126.914 785.256 127.094 784.943 127.453C784.631 127.809 784.475 128.303 784.475 128.936V129.029C784.475 129.709 784.631 130.248 784.943 130.646C785.26 131.041 785.686 131.238 786.221 131.238C786.76 131.238 787.186 131.039 787.498 130.641C787.811 130.242 787.967 129.66 787.967 128.895C787.967 128.297 787.809 127.818 787.492 127.459C787.18 127.096 786.752 126.914 786.209 126.914Z" fill="black" fill-opacity="0.5"/>
<path d="M907.99 132V123.469H910.779C911.705 123.469 912.4 123.66 912.865 124.043C913.334 124.426 913.568 124.992 913.568 125.742C913.568 126.141 913.455 126.494 913.229 126.803C913.002 127.107 912.693 127.344 912.303 127.512C912.764 127.641 913.127 127.887 913.393 128.25C913.662 128.609 913.797 129.039 913.797 129.539C913.797 130.305 913.549 130.906 913.053 131.344C912.557 131.781 911.855 132 910.949 132H907.99ZM909.115 128.01V131.08H910.973C911.496 131.08 911.908 130.945 912.209 130.676C912.514 130.402 912.666 130.027 912.666 129.551C912.666 128.523 912.107 128.01 910.99 128.01H909.115ZM909.115 127.107H910.814C911.307 127.107 911.699 126.984 911.992 126.738C912.289 126.492 912.438 126.158 912.438 125.736C912.438 125.268 912.301 124.928 912.027 124.717C911.754 124.502 911.338 124.395 910.779 124.395H909.115V127.107ZM917.84 131.232C918.227 131.232 918.564 131.115 918.854 130.881C919.143 130.646 919.303 130.354 919.334 130.002H920.359C920.34 130.365 920.215 130.711 919.984 131.039C919.754 131.367 919.445 131.629 919.059 131.824C918.676 132.02 918.27 132.117 917.84 132.117C916.977 132.117 916.289 131.83 915.777 131.256C915.27 130.678 915.016 129.889 915.016 128.889V128.707C915.016 128.09 915.129 127.541 915.355 127.061C915.582 126.58 915.906 126.207 916.328 125.941C916.754 125.676 917.256 125.543 917.834 125.543C918.545 125.543 919.135 125.756 919.604 126.182C920.076 126.607 920.328 127.16 920.359 127.84H919.334C919.303 127.43 919.146 127.094 918.865 126.832C918.588 126.566 918.244 126.434 917.834 126.434C917.283 126.434 916.855 126.633 916.551 127.031C916.25 127.426 916.1 127.998 916.1 128.748V128.953C916.1 129.684 916.25 130.246 916.551 130.641C916.852 131.035 917.281 131.232 917.84 131.232ZM923.553 129.299H922.762V132H921.672V125.66H922.762V128.344H923.471L925.604 125.66H926.916L924.408 128.707L927.127 132H925.75L923.553 129.299ZM933.414 128.9C933.414 129.865 933.193 130.643 932.752 131.232C932.311 131.822 931.713 132.117 930.959 132.117C930.189 132.117 929.584 131.873 929.143 131.385V134.438H928.059V125.66H929.049L929.102 126.363C929.543 125.816 930.156 125.543 930.941 125.543C931.703 125.543 932.305 125.83 932.746 126.404C933.191 126.979 933.414 127.777 933.414 128.801V128.9ZM932.33 128.777C932.33 128.062 932.178 127.498 931.873 127.084C931.568 126.67 931.15 126.463 930.619 126.463C929.963 126.463 929.471 126.754 929.143 127.336V130.365C929.467 130.943 929.963 131.232 930.631 131.232C931.15 131.232 931.562 131.027 931.867 130.617C932.176 130.203 932.33 129.59 932.33 128.777Z" fill="black" fill-opacity="0.5"/>
<rect x="137" y="498" width="23" height="131" rx="1" transform="rotate(90 137 498)" fill="#FFD3D3"/>
<rect x="8" y="498" width="23" height="3" rx="1" transform="rotate(90 8 498)" fill="#D61A1A"/>
<path d="M18.5596 514H17.6514V507.979L15.8301 508.648V507.828L18.418 506.856H18.5596V514ZM25.0195 511.612H26.0059V512.35H25.0195V514H24.1113V512.35H20.874V511.817L24.0576 506.891H25.0195V511.612ZM21.8994 511.612H24.1113V508.126L24.0039 508.321L21.8994 511.612ZM26.8848 513.526C26.8848 513.37 26.9303 513.24 27.0215 513.136C27.1159 513.032 27.2559 512.979 27.4414 512.979C27.627 512.979 27.7669 513.032 27.8613 513.136C27.959 513.24 28.0078 513.37 28.0078 513.526C28.0078 513.676 27.959 513.801 27.8613 513.902C27.7669 514.003 27.627 514.054 27.4414 514.054C27.2559 514.054 27.1159 514.003 27.0215 513.902C26.9303 513.801 26.8848 513.676 26.8848 513.526ZM26.8896 509.215C26.8896 509.059 26.9352 508.928 27.0264 508.824C27.1208 508.72 27.2607 508.668 27.4463 508.668C27.6318 508.668 27.7718 508.72 27.8662 508.824C27.9639 508.928 28.0127 509.059 28.0127 509.215C28.0127 509.365 27.9639 509.49 27.8662 509.591C27.7718 509.692 27.6318 509.742 27.4463 509.742C27.2607 509.742 27.1208 509.692 27.0264 509.591C26.9352 509.49 26.8896 509.365 26.8896 509.215ZM33.7012 510.968C33.7012 512.026 33.5205 512.812 33.1592 513.326C32.7979 513.84 32.2331 514.098 31.4648 514.098C30.7064 514.098 30.1449 513.847 29.7803 513.346C29.4157 512.841 29.2269 512.089 29.2139 511.09V509.884C29.2139 508.839 29.3945 508.062 29.7559 507.555C30.1172 507.047 30.6836 506.793 31.4551 506.793C32.2201 506.793 32.7832 507.039 33.1445 507.53C33.5059 508.019 33.6914 508.774 33.7012 509.796V510.968ZM32.7979 509.732C32.7979 508.967 32.6904 508.411 32.4756 508.062C32.2607 507.711 31.9206 507.535 31.4551 507.535C30.9928 507.535 30.6559 507.709 30.4443 508.058C30.2327 508.406 30.1237 508.941 30.1172 509.664V511.109C30.1172 511.878 30.2279 512.446 30.4492 512.813C30.6738 513.178 31.0124 513.36 31.4648 513.36C31.9108 513.36 32.2412 513.188 32.4561 512.843C32.6742 512.498 32.7881 511.954 32.7979 511.212V509.732ZM39.3164 510.968C39.3164 512.026 39.1357 512.812 38.7744 513.326C38.4131 513.84 37.8483 514.098 37.0801 514.098C36.3216 514.098 35.7601 513.847 35.3955 513.346C35.0309 512.841 34.8421 512.089 34.8291 511.09V509.884C34.8291 508.839 35.0098 508.062 35.3711 507.555C35.7324 507.047 36.2988 506.793 37.0703 506.793C37.8353 506.793 38.3984 507.039 38.7598 507.53C39.1211 508.019 39.3066 508.774 39.3164 509.796V510.968ZM38.4131 509.732C38.4131 508.967 38.3057 508.411 38.0908 508.062C37.876 507.711 37.5358 507.535 37.0703 507.535C36.6081 507.535 36.2712 507.709 36.0596 508.058C35.848 508.406 35.7389 508.941 35.7324 509.664V511.109C35.7324 511.878 35.8431 512.446 36.0645 512.813C36.2891 513.178 36.6276 513.36 37.0801 513.36C37.526 513.36 37.8564 513.188 38.0713 512.843C38.2894 512.498 38.4033 511.954 38.4131 511.212V509.732ZM45.0342 510.807H44.1699V514H43.2324V506.891H44.1699V510.025H44.9023L47.3877 506.891H48.5547L45.8398 510.338L48.7549 514H47.6074L45.0342 510.807ZM49.0967 511.31C49.0967 510.792 49.1976 510.326 49.3994 509.913C49.6045 509.5 49.8877 509.181 50.249 508.956C50.6136 508.731 51.0286 508.619 51.4941 508.619C52.2135 508.619 52.7946 508.868 53.2373 509.366C53.6833 509.864 53.9062 510.527 53.9062 511.354V511.417C53.9062 511.931 53.807 512.394 53.6084 512.804C53.4131 513.211 53.1315 513.528 52.7637 513.756C52.3991 513.984 51.9792 514.098 51.5039 514.098C50.7878 514.098 50.2067 513.849 49.7607 513.351C49.318 512.853 49.0967 512.193 49.0967 511.373V511.31ZM50.0049 511.417C50.0049 512.003 50.14 512.473 50.4102 512.828C50.6836 513.183 51.0482 513.36 51.5039 513.36C51.9629 513.36 52.3275 513.181 52.5977 512.823C52.8678 512.462 53.0029 511.957 53.0029 511.31C53.0029 510.73 52.8646 510.261 52.5879 509.903C52.3145 509.542 51.9499 509.361 51.4941 509.361C51.0482 509.361 50.6885 509.539 50.415 509.894C50.1416 510.248 50.0049 510.756 50.0049 511.417ZM59.3555 514H58.4521V511.744H56.0254V514H55.1172V508.717H56.0254V511.007H58.4521V508.717H59.3555V514ZM60.6152 511.456C60.6152 510.574 60.7861 509.881 61.1279 509.376C61.4697 508.871 61.9385 508.619 62.5342 508.619C62.8109 508.619 63.0534 508.666 63.2617 508.761V506.5H64.165V508.79C64.3929 508.676 64.6598 508.619 64.9658 508.619C65.5648 508.619 66.0352 508.871 66.377 509.376C66.7188 509.881 66.8896 510.608 66.8896 511.559C66.8896 512.337 66.7188 512.955 66.377 513.414C66.0384 513.873 65.5713 514.103 64.9756 514.103C64.6598 514.103 64.3896 514.05 64.165 513.946V516.031H63.2617V513.961C63.0469 514.055 62.8011 514.103 62.5244 514.103C61.932 514.103 61.4648 513.873 61.123 513.414C60.7845 512.955 60.6152 512.327 60.6152 511.529V511.456ZM65.9863 511.456C65.9863 510.792 65.8724 510.278 65.6445 509.913C65.4167 509.545 65.1025 509.361 64.7021 509.361C64.4971 509.361 64.318 509.394 64.165 509.459V513.282C64.3115 513.338 64.4938 513.365 64.7119 513.365C65.1156 513.365 65.4281 513.209 65.6494 512.896C65.874 512.584 65.9863 512.104 65.9863 511.456ZM61.5186 511.559C61.5186 512.151 61.6243 512.6 61.8359 512.906C62.0475 513.212 62.3519 513.365 62.749 513.365C62.9378 513.365 63.1087 513.336 63.2617 513.277V509.444C63.125 509.389 62.9574 509.361 62.7588 509.361C62.3617 509.361 62.0557 509.539 61.8408 509.894C61.626 510.248 61.5186 510.803 61.5186 511.559ZM70.2588 514.098C69.5426 514.098 68.96 513.863 68.5107 513.395C68.0615 512.923 67.8369 512.293 67.8369 511.505V511.339C67.8369 510.815 67.9362 510.348 68.1348 509.938C68.3366 509.524 68.6165 509.202 68.9746 508.971C69.3359 508.736 69.7266 508.619 70.1465 508.619C70.8333 508.619 71.3672 508.845 71.748 509.298C72.1289 509.75 72.3193 510.398 72.3193 511.241V511.617H68.7402C68.7533 512.138 68.9046 512.56 69.1943 512.882C69.4873 513.201 69.8584 513.36 70.3076 513.36C70.6266 513.36 70.8968 513.295 71.1182 513.165C71.3395 513.035 71.5332 512.862 71.6992 512.647L72.251 513.077C71.8083 513.757 71.1442 514.098 70.2588 514.098ZM70.1465 509.361C69.7819 509.361 69.4759 509.495 69.2285 509.762C68.9811 510.025 68.8281 510.396 68.7695 510.875H71.416V510.807C71.39 510.348 71.2663 509.993 71.0449 509.742C70.8236 509.488 70.5241 509.361 70.1465 509.361ZM77.832 511.417C77.832 512.221 77.6481 512.869 77.2803 513.36C76.9124 513.852 76.4144 514.098 75.7861 514.098C75.1449 514.098 74.6403 513.894 74.2725 513.487V516.031H73.3691V508.717H74.1943L74.2383 509.303C74.6061 508.847 75.1172 508.619 75.7715 508.619C76.4062 508.619 76.9076 508.858 77.2754 509.337C77.6465 509.815 77.832 510.481 77.832 511.334V511.417ZM76.9287 511.314C76.9287 510.719 76.8018 510.248 76.5479 509.903C76.2939 509.558 75.9456 509.386 75.5029 509.386C74.9561 509.386 74.5459 509.628 74.2725 510.113V512.638C74.5426 513.119 74.9561 513.36 75.5127 513.36C75.9456 513.36 76.2891 513.189 76.543 512.848C76.8001 512.503 76.9287 511.992 76.9287 511.314ZM81.1768 514.098C80.4606 514.098 79.8779 513.863 79.4287 513.395C78.9795 512.923 78.7549 512.293 78.7549 511.505V511.339C78.7549 510.815 78.8542 510.348 79.0527 509.938C79.2546 509.524 79.5345 509.202 79.8926 508.971C80.2539 508.736 80.6445 508.619 81.0645 508.619C81.7513 508.619 82.2852 508.845 82.666 509.298C83.0469 509.75 83.2373 510.398 83.2373 511.241V511.617H79.6582C79.6712 512.138 79.8226 512.56 80.1123 512.882C80.4053 513.201 80.7764 513.36 81.2256 513.36C81.5446 513.36 81.8148 513.295 82.0361 513.165C82.2575 513.035 82.4512 512.862 82.6172 512.647L83.1689 513.077C82.7262 513.757 82.0622 514.098 81.1768 514.098ZM81.0645 509.361C80.6999 509.361 80.3939 509.495 80.1465 509.762C79.8991 510.025 79.7461 510.396 79.6875 510.875H82.334V510.807C82.3079 510.348 82.1842 509.993 81.9629 509.742C81.7415 509.488 81.4421 509.361 81.0645 509.361ZM88.6035 514H87.7002V511.744H85.2734V514H84.3652V508.717H85.2734V511.007H87.7002V508.717H88.6035V514ZM90.1367 508.717H91.0449V513.263H93.4766V508.717H94.3799V513.263H95.0098L94.9219 515.567H94.1113V514H90.1367V508.717ZM99.4043 508.717H100.308V514H99.4043V510.147L96.9678 514H96.0645V508.717H96.9678V512.574L99.4043 508.717ZM105.796 508.717V514H104.888V511.944H103.525L102.28 514H101.304L102.632 511.808C102.293 511.684 102.033 511.493 101.851 511.236C101.672 510.976 101.582 510.673 101.582 510.328C101.582 509.846 101.763 509.459 102.124 509.166C102.485 508.87 102.969 508.72 103.574 508.717H105.796ZM102.49 510.338C102.49 510.595 102.578 510.803 102.754 510.963C102.93 511.119 103.162 511.199 103.452 511.202H104.888V509.449H103.589C103.254 509.449 102.987 509.532 102.788 509.698C102.59 509.861 102.49 510.074 102.49 510.338Z" fill="black"/>
<defs>
<filter id="filter0_d" x="773" y="17" width="205" height="46" filterUnits="userSpaceOnUse" color-interpolation-filters="sRGB">
<feFlood flood-opacity="0" result="BackgroundImageFix"/>
<feColorMatrix in="SourceAlpha" type="matrix" values="0 0 0 0 0 0 0 0 0 0 0 0 0 0 0 0 0 0 127 0"/>
<feOffset dy="4"/>
<feGaussianBlur stdDeviation="2"/>
<feColorMatrix type="matrix" values="0 0 0 0 0 0 0 0 0 0 0 0 0 0 0 0 0 0 0.25 0"/>
<feBlend mode="normal" in2="BackgroundImageFix" result="effect1_dropShadow"/>
<feBlend mode="normal" in="SourceGraphic" in2="effect1_dropShadow" result="shape"/>
</filter>
</defs>
</svg>
