<svg width="46" height="46" viewBox="0 0 46 46" fill="none" xmlns="http://www.w3.org/2000/svg">
<path d="M42.4062 19.5751C42.4062 14.3783 38.2145 10.1501 33.0625 10.1501C27.9105 10.1501 23.7188 14.3783 23.7188 19.5751C23.7188 24.7719 27.9105 29.0001 33.0625 29.0001C38.2145 29.0001 42.4062 24.7719 42.4062 19.5751ZM25.1562 19.5751C25.1562 15.178 28.7033 11.6001 33.0625 11.6001C37.4217 11.6001 40.9688 15.178 40.9688 19.5751C40.9688 23.9723 37.4217 27.5501 33.0625 27.5501C28.7033 27.5501 25.1562 23.9723 25.1562 19.5751Z" fill="black"/>
<path d="M45.2812 19.5751C45.2812 12.7789 39.8001 7.2501 33.0625 7.2501C26.3832 7.2501 20.9465 12.6854 20.8524 19.4004C20.8524 19.4004 20.8517 19.4004 20.8517 19.3996L17.25 18.3107V17.3196C17.6424 16.9151 17.9652 16.4438 18.2067 15.9254C19.6794 15.8015 20.8438 14.5675 20.8438 13.0501V7.9751C20.8438 3.97745 17.6194 0.725098 13.6562 0.725098C9.69306 0.725098 6.46875 3.97745 6.46875 7.9751V13.0501C6.46875 14.5675 7.63312 15.8015 9.10584 15.9262C9.34734 16.4438 9.67006 16.9158 10.0625 17.3203V18.3114L6.46084 19.4011C4.31609 20.0492 2.875 22.0031 2.875 24.2615V29.7251H24.4375V28.2961C25.8268 29.6946 27.5475 30.7568 29.4688 31.3542V33.3501H28.0312V34.8001H29.4688V36.2501H28.0312V37.7001H29.4688V42.0501C29.4688 44.0489 31.0809 45.6751 33.0625 45.6751C35.0441 45.6751 36.6562 44.0489 36.6562 42.0501V37.7001H38.0938V36.2501H36.6562V34.8001H38.0938V33.3501H36.6562V31.3542C41.6451 29.8027 45.2812 25.1097 45.2812 19.5751ZM13.6562 18.8501C14.4282 18.8501 15.1577 18.6681 15.8125 18.3535V18.5963L13.6562 21.3151L11.5 18.5963V18.3535C12.1548 18.6681 12.8843 18.8501 13.6562 18.8501ZM12.9253 22.7143L10.447 23.7141L8.93837 20.1645L10.5225 19.6853L12.9253 22.7143ZM16.7893 19.6853L18.3734 20.1645L16.8648 23.7141L14.3865 22.7143L16.7893 19.6853ZM17.25 13.7751C17.25 15.7739 15.6378 17.4001 13.6562 17.4001C11.6747 17.4001 10.0625 15.7739 10.0625 13.7751V10.8584C11.4382 10.7504 12.7147 10.1327 13.6562 9.13292C14.5978 10.1327 15.8743 10.7497 17.25 10.8584V13.7751ZM18.658 14.3145C18.6767 14.1369 18.6875 13.9571 18.6875 13.7751V11.8016C19.1152 12.0532 19.4062 12.5158 19.4062 13.0501C19.4062 13.596 19.1015 14.0673 18.658 14.3145ZM7.90625 13.0501C7.90625 12.5158 8.19734 12.0532 8.625 11.8016V13.7751C8.625 13.9571 8.63578 14.1369 8.65447 14.3145C8.211 14.0673 7.90625 13.596 7.90625 13.0501ZM8.625 9.4251V10.253C8.36912 10.3197 8.12906 10.422 7.90625 10.5532V7.9751C7.90625 4.77712 10.4858 2.1751 13.6562 2.1751C16.8267 2.1751 19.4062 4.77712 19.4062 7.9751V10.5532C19.1834 10.422 18.9434 10.3197 18.6875 10.253V9.4251H17.6848C16.3027 9.4251 15.0204 8.73272 14.2543 7.57272L13.6562 6.66792L13.0582 7.57272C12.2921 8.73272 11.0091 9.4251 9.62766 9.4251H8.625ZM20.125 28.2751V25.3751H18.6875V28.2751H8.625V25.3751H7.1875V28.2751H4.3125V24.2615C4.3125 22.6484 5.34247 21.2535 6.87341 20.7895L7.55263 20.5836L9.67725 25.5861L13.6562 23.9809L17.6345 25.5861L19.7592 20.5836L20.4384 20.7887C20.5987 20.8373 20.7625 20.9091 20.9314 20.9939C21.1658 23.0399 21.8946 24.9343 23 26.5511V28.2751H20.125ZM22.2812 19.5751C22.2812 13.5786 27.1177 8.7001 33.0625 8.7001C39.0073 8.7001 43.8438 13.5786 43.8438 19.5751C43.8438 25.5716 39.0073 30.4501 33.0625 30.4501C27.1177 30.4501 22.2812 25.5716 22.2812 19.5751ZM35.2188 42.0501C35.2188 43.2492 34.2513 44.2251 33.0625 44.2251C31.8737 44.2251 30.9062 43.2492 30.9062 42.0501V37.7001H35.2188V42.0501ZM35.2188 36.2501H30.9062V34.8001H35.2188V36.2501ZM35.2188 33.3501H30.9062V31.6964C31.6077 31.8225 32.3258 31.9001 33.0625 31.9001C33.7992 31.9001 34.5173 31.8225 35.2188 31.6964V33.3501Z" fill="black"/>
<path d="M38.3044 15.4375L30.1876 23.6249L27.8208 21.2375L26.8044 22.2627L30.1876 25.6752L39.3208 16.4627L38.3044 15.4375Z" fill="black"/>
<path d="M0.71875 45.675H22.2812V32.625H0.71875V45.675ZM2.15625 34.075H20.8438V44.225H2.15625V34.075Z" fill="black"/>
<path d="M5.03125 35.5251H3.59375V36.9751H5.03125V35.5251Z" fill="black"/>
<path d="M19.4062 35.5251H6.46875V36.9751H19.4062V35.5251Z" fill="black"/>
<path d="M19.4062 38.425H6.46875V39.875H19.4062V38.425Z" fill="black"/>
<path d="M19.4062 41.3252H6.46875V42.7752H19.4062V41.3252Z" fill="black"/>
<path d="M5.03125 41.3252H3.59375V42.7752H5.03125V41.3252Z" fill="black"/>
<path d="M5.03125 38.425H3.59375V39.875H5.03125V38.425Z" fill="black"/>
</svg>
