<svg width="41" height="48" viewBox="0 0 41 48" fill="none" xmlns="http://www.w3.org/2000/svg">
<path d="M31.1327 33.5549C30.9445 33.5549 30.7542 33.5019 30.585 33.3909C30.1233 33.0879 29.9946 32.468 30.2975 32.0061C30.3456 31.9328 30.4073 31.8408 30.4797 31.7324C30.9383 31.047 31.792 29.7709 32.4485 28.439C33.465 26.3768 33.2577 25.6693 33.2058 25.5484C33.183 25.4954 33.1297 25.3713 32.7604 25.3077C32.2161 25.214 31.8507 24.6969 31.9444 24.1526C32.0381 23.6084 32.5551 23.2428 33.0995 23.3368C34.2895 23.5415 34.8137 24.2235 35.0437 24.7597C35.912 26.7831 33.9491 30.1433 32.1419 32.8446C32.0733 32.947 32.0151 33.0341 31.9696 33.1035C31.7777 33.396 31.4584 33.5549 31.1327 33.5549Z" fill="black"/>
<path d="M34.9734 41.5842H25.0001C24.4906 41.5842 24.0626 41.2011 24.0064 40.6948C23.9014 39.7513 24.0142 36.3959 24.1048 35.6689C24.2987 34.0522 25.5066 30.9888 26.9137 28.5474C28.2291 26.2655 30.2476 23.5614 32.5049 23.3642C31.8278 20.9557 31.4336 17.9752 31.8043 15.9822C32.0755 14.487 33.3249 12.3752 35.2507 12.3752C35.4697 12.3752 35.691 12.404 35.9085 12.4607C37.454 12.8683 38.8124 15.478 39.9486 20.2181C40.7339 23.4941 41.3078 27.6578 40.8198 29.575C40.2258 31.9211 39.1557 33.3194 38.2118 34.5531C37.0235 36.106 35.9973 37.4471 35.9734 40.5919C35.9692 41.1411 35.5228 41.5842 34.9734 41.5842ZM25.964 39.5843H34.0129C34.2449 36.4462 35.4524 34.8683 36.6234 33.3379C37.5308 32.1521 38.3878 31.0319 38.8812 29.0829C39.2084 27.7973 38.8447 24.2444 38.0354 20.8172C36.9735 16.3207 35.7974 14.5475 35.3943 14.3932C35.3507 14.3821 35.2994 14.3751 35.2506 14.3751C34.6568 14.3751 33.9286 15.4758 33.7713 16.3435C33.3843 18.4243 34.0741 22.194 34.9609 24.4122C35.1328 24.8424 34.9869 25.3342 34.6082 25.601C34.2295 25.8678 33.7173 25.8395 33.3701 25.5327C33.332 25.499 33.214 25.4157 32.9428 25.3692C32.9395 25.3686 32.9362 25.368 32.9329 25.3674C32.879 25.3576 32.8229 25.3527 32.7664 25.3527C31.9433 25.3527 30.4287 26.4543 28.6465 29.5463C27.2293 32.005 26.2337 34.7135 26.09 35.9117C26.028 36.4089 25.9593 38.3562 25.964 39.5843Z" fill="black"/>
<path d="M38 47.5844H24.0002C23.448 47.5844 23.0002 47.1366 23.0002 46.5844V40.5845C23.0002 40.0323 23.448 39.5845 24.0002 39.5845H37.0001C37.4889 39.5845 37.9061 39.9379 37.9864 40.4201L38.9864 46.42C39.0347 46.7099 38.953 47.0064 38.763 47.2307C38.573 47.4551 38.2939 47.5844 38 47.5844ZM25.0002 45.5844H36.8196L36.1529 41.5844H25.0002V45.5844Z" fill="black"/>
<path d="M34 44.5847C33.737 44.5847 33.479 44.4777 33.293 44.2916C33.107 44.1057 33 43.8477 33 43.5847C33 43.3217 33.1069 43.0637 33.293 42.8777C33.4791 42.6917 33.737 42.5847 34 42.5847C34.263 42.5847 34.521 42.6916 34.7069 42.8777C34.8929 43.0637 35 43.3217 35 43.5847C35 43.8477 34.893 44.1057 34.7069 44.2916C34.521 44.4777 34.263 44.5847 34 44.5847Z" fill="black"/>
<path d="M9.86753 33.555C9.54184 33.555 9.22254 33.3961 9.03055 33.1034C8.98495 33.034 8.92665 32.947 8.85805 32.8443C7.05097 30.143 5.0881 26.783 5.95649 24.7597C6.18658 24.2235 6.71068 23.5414 7.90066 23.3367C8.44545 23.2429 8.96215 23.6084 9.05575 24.1526C9.14944 24.6969 8.78415 25.2141 8.23986 25.3077C7.87046 25.3713 7.81716 25.4954 7.79436 25.5484C7.74246 25.6693 7.53517 26.3767 8.55155 28.4386C9.20804 29.7704 10.0617 31.0466 10.5203 31.7322C10.5929 31.8407 10.6544 31.9328 10.7026 32.0062C11.0056 32.4679 10.8769 33.0878 10.4151 33.3909C10.246 33.502 10.0557 33.555 9.86753 33.555Z" fill="black"/>
<path d="M16.0001 41.5846H6.02687C5.47758 41.5846 5.03109 41.1415 5.02689 40.5922C5.00289 37.4475 3.9767 36.1065 2.78852 34.5536C1.84443 33.3198 0.774447 31.9214 0.180155 29.574C-0.307638 27.6582 0.266254 23.4944 1.05154 20.2185C2.18773 15.4783 3.54621 12.8686 5.08919 12.4617C5.30908 12.4043 5.53048 12.3755 5.74958 12.3755C7.67525 12.3755 8.92463 14.4873 9.19683 15.9867C9.56683 17.9763 9.17253 20.9562 8.49544 23.3644C10.7528 23.5617 12.7713 26.2657 14.0866 28.5477C15.4937 30.989 16.7015 34.0525 16.896 35.6737C16.986 36.3963 17.099 39.7516 16.994 40.695C16.9376 41.2015 16.5096 41.5846 16.0001 41.5846ZM6.98746 39.5846H15.0364C15.041 38.3567 14.9724 36.4105 14.9109 35.9166C14.7666 34.7139 13.7711 32.0053 12.3539 29.5466C10.5717 26.4547 9.05713 25.353 8.23394 25.353C8.17745 25.353 8.12144 25.358 8.06745 25.3677C8.06415 25.3683 8.06085 25.3689 8.05755 25.3695C7.78625 25.416 7.66835 25.4993 7.63035 25.5329C7.28336 25.8396 6.77096 25.8681 6.39227 25.6013C6.01357 25.3346 5.86758 24.8427 6.03957 24.4125C6.92616 22.1944 7.61605 18.4246 7.22986 16.3482C7.07166 15.4762 6.34357 14.3755 5.74968 14.3755C5.70098 14.3755 5.64958 14.3825 5.59688 14.3962C5.20279 14.5478 4.0268 16.3209 2.96492 20.8175C2.15553 24.2446 1.79183 27.7976 2.11883 29.0819C2.61262 31.0322 3.46961 32.1523 4.377 33.3381C5.54798 34.8688 6.75526 36.4467 6.98746 39.5846Z" fill="black"/>
<path d="M17 47.5844H3.00018C2.70628 47.5844 2.42719 47.4551 2.23719 47.2308C2.04719 47.0065 1.96549 46.71 2.01389 46.4201L3.01388 40.4202C3.09418 39.9379 3.51137 39.5845 4.00016 39.5845H17C17.5523 39.5845 18 40.0323 18 40.5845V46.5844C18 47.1366 17.5523 47.5844 17 47.5844ZM4.18066 45.5844H16V41.5844H4.84725L4.18066 45.5844Z" fill="black"/>
<path d="M6.99999 44.5847C6.73699 44.5847 6.47899 44.4777 6.293 44.2916C6.107 44.1057 6 43.8477 6 43.5847C6 43.3217 6.107 43.0637 6.293 42.8777C6.47899 42.6917 6.73699 42.5847 6.99999 42.5847C7.26298 42.5847 7.52098 42.6916 7.70698 42.8777C7.89297 43.0638 7.99997 43.3217 7.99997 43.5847C7.99997 43.8477 7.89297 44.1057 7.70698 44.2916C7.52098 44.4777 7.26298 44.5847 6.99999 44.5847Z" fill="black"/>
<path d="M20.5 25.3348C20.407 25.3348 20.3134 25.3218 20.222 25.2953L12.7221 23.1244C12.2945 23.0006 12.0002 22.6091 12.0002 22.1639V12.756C12.0002 12.4416 12.1481 12.1455 12.3994 11.9566C12.6507 11.7678 12.9763 11.7081 13.2783 11.7955L20.7782 13.9665C21.2058 14.0903 21.5002 14.4818 21.5002 14.927V24.3349C21.5002 24.6493 21.3523 24.9453 21.101 25.1342C20.9256 25.266 20.7142 25.3348 20.5 25.3348ZM14.0001 21.4123L19.5 23.0044V15.6787L14.0001 14.0866V21.4123Z" fill="black"/>
<path d="M20.5001 25.3348C20.2858 25.3348 20.0745 25.266 19.8992 25.1342C19.6479 24.9452 19.5 24.6491 19.5 24.3348V14.927C19.5 14.4818 19.7943 14.0902 20.2219 13.9665L27.7218 11.7956C28.0239 11.7081 28.3494 11.7679 28.6006 11.9567C28.852 12.1456 28.9998 12.4417 28.9998 12.7561V22.1638C28.9998 22.609 28.7055 23.0006 28.2778 23.1243L20.7779 25.2953C20.6868 25.3218 20.5932 25.3348 20.5001 25.3348ZM21.5001 15.6786V23.0043L27 21.4122V14.0865L21.5001 15.6786Z" fill="black"/>
<path d="M20.5001 15.9273C20.4065 15.9273 20.3128 15.9142 20.222 15.8878L12.7221 13.7168C12.2945 13.593 12.0002 13.2015 12.0002 12.7564C12.0002 12.3112 12.2945 11.9196 12.7221 11.7959L20.222 9.6249C20.4036 9.5723 20.5966 9.5723 20.7781 9.6249L28.278 11.7959C28.7056 11.9197 29 12.3112 29 12.7564C29 13.2015 28.7057 13.5931 28.278 13.7168L20.7781 15.8878C20.6874 15.9142 20.5937 15.9273 20.5001 15.9273ZM16.5966 12.7563L20.5001 13.8862L24.4037 12.7563L20.5001 11.6264L16.5966 12.7563Z" fill="black"/>
<path d="M32.7522 11.5855C32.3518 11.5855 31.9741 11.3435 31.8201 10.948C29.8427 5.86773 25.3992 2.58518 20.5002 2.58518C15.6012 2.58518 11.1578 5.86773 9.18037 10.9478C8.97997 11.4624 8.40018 11.7171 7.88579 11.5169C7.37119 11.3166 7.1163 10.7369 7.31669 10.2223C9.59556 4.36805 14.7704 0.585205 20.5002 0.585205C26.2301 0.585205 31.4051 4.36805 33.6839 10.2225C33.8842 10.7371 33.6294 11.3168 33.1148 11.5171C32.9955 11.5635 32.8729 11.5855 32.7522 11.5855Z" fill="black"/>
</svg>
