<svg width="43" height="45" viewBox="0 0 43 45" fill="none" xmlns="http://www.w3.org/2000/svg">
<path fill-rule="evenodd" clip-rule="evenodd" d="M16.8029 21.7748C18.0418 21.7748 19.2381 21.6215 20.3724 21.3414C20.0245 20.9253 19.7145 20.485 19.4507 20.0218C18.6008 20.1899 17.715 20.2816 16.8029 20.2816C15.9161 20.2816 14.9978 20.1854 14.0729 19.9965L13.7953 19.9395L8.77621 23.1697L10.3137 18.602L9.82445 18.2861C7.0347 16.4846 5.43462 13.7884 5.43462 10.8879C5.43462 5.70776 10.5344 1.49364 16.8034 1.49364C21.3786 1.49364 25.3284 3.73955 27.1301 6.96585C27.6336 6.88303 28.1487 6.82898 28.6742 6.80766C26.7708 2.82065 22.1683 0 16.8029 0C9.74084 0 3.99556 4.88408 3.99556 10.8874C3.99556 14.139 5.65823 17.1491 8.57936 19.2249L6.07676 26.6638L14.0752 21.5164C14.9969 21.688 15.9133 21.7748 16.8029 21.7748ZM20.0581 16.2038C20.0581 17.7996 20.6238 19.2833 21.5894 20.5206C23.2272 22.6182 26.0198 24.0037 29.1856 24.0037C30.123 24.0037 31.0585 23.8768 31.9711 23.6264L38.7909 26.7292L35.9997 21.3963C36.3064 21.1037 36.5768 20.7908 36.8253 20.467C37.7894 19.2114 38.3136 17.7465 38.3136 16.2038C38.3136 11.9029 34.219 8.40337 29.1861 8.40337C24.1532 8.40337 20.0581 11.9024 20.0581 16.2038ZM36.8745 16.2038C36.8745 17.8715 36.0814 19.4465 34.6414 20.6391L34.1703 21.0294L35.5219 23.6115L32.0747 22.0435L31.8249 22.1188C30.9625 22.3787 30.0752 22.5106 29.1856 22.5106C24.9463 22.5106 21.4967 19.6815 21.4967 16.2038C21.4967 12.7261 24.9463 9.897 29.1856 9.897C33.4249 9.897 36.8745 12.7261 36.8745 16.2038ZM25.9348 16.4756C25.9348 17.1201 25.4315 17.6425 24.8106 17.6425C24.1897 17.6425 23.6864 17.1201 23.6864 16.4756C23.6864 15.8312 24.1897 15.3088 24.8106 15.3088C25.4315 15.3088 25.9348 15.8312 25.9348 16.4756ZM29.1857 17.6425C29.8066 17.6425 30.3099 17.1201 30.3099 16.4756C30.3099 15.8312 29.8066 15.3088 29.1857 15.3088C28.5648 15.3088 28.0615 15.8312 28.0615 16.4756C28.0615 17.1201 28.5648 17.6425 29.1857 17.6425ZM34.6848 16.4756C34.6848 17.1201 34.1815 17.6425 33.5606 17.6425C32.9397 17.6425 32.4364 17.1201 32.4364 16.4756C32.4364 15.8312 32.9397 15.3088 33.5606 15.3088C34.1815 15.3088 34.6848 15.8312 34.6848 16.4756ZM6.24597 37.8617C7.98795 37.8617 9.45999 36.6656 9.9435 35.0217C10.0529 34.6508 10.1122 34.257 10.1122 33.8489C10.1122 32.4078 9.37781 31.1482 8.27892 30.4401C7.68791 30.0593 6.99274 29.8356 6.24549 29.8356C4.1103 29.8356 2.37931 31.6322 2.37931 33.8484C2.37979 36.065 4.11078 37.8617 6.24597 37.8617ZM6.24597 31.3287C7.58471 31.3287 8.67356 32.4589 8.67356 33.8484C8.67356 35.2379 7.58471 36.368 6.24597 36.368C4.90724 36.368 3.81838 35.2379 3.81838 33.8484C3.81838 32.4589 4.90771 31.3287 6.24597 31.3287ZM7.74527 40.8558H4.74721C2.92305 40.8558 1.43859 42.396 1.43859 44.2894H0.719534H0C0 41.5728 2.12946 39.3621 4.74768 39.3626H7.74574C10.3635 39.3626 12.4929 41.5728 12.4929 44.2894H11.7734H11.0539C11.0539 42.396 9.56942 40.8558 7.74527 40.8558ZM21.5001 37.8616C23.2421 37.8616 24.7141 36.6656 25.1977 35.0217C25.3071 34.6507 25.3663 34.257 25.3663 33.8489C25.3663 32.0225 24.19 30.4842 22.5818 29.9982C22.2383 29.8946 21.8757 29.8361 21.5001 29.8361C21.1246 29.8361 20.762 29.8946 20.4184 29.9982C18.8102 30.4842 17.6339 32.023 17.6339 33.8489C17.6339 34.257 17.6937 34.6507 17.8026 35.0217C18.2861 36.6656 19.7581 37.8616 21.5001 37.8616ZM21.5001 31.3287C22.8389 31.3287 23.9277 32.4589 23.9277 33.8484C23.9277 35.2379 22.8389 36.368 21.5001 36.368C20.1614 36.368 19.0725 35.2379 19.0725 33.8484C19.0725 32.4589 20.1614 31.3287 21.5001 31.3287ZM15.9735 44.2894H15.254C15.254 41.5728 17.3835 39.3621 20.0022 39.3626H23.0002C25.618 39.3626 27.7474 41.5728 27.7474 44.2894H27.0279H26.3084C26.3084 42.396 24.8239 40.8558 22.9998 40.8558H20.0017C18.1771 40.8558 16.6931 42.396 16.6931 44.2894H15.9735ZM32.8873 33.8484C32.8873 34.2565 32.947 34.6503 33.056 35.0212C33.5395 36.6651 35.0115 37.8612 36.7535 37.8612C38.8887 37.8612 40.6197 36.0646 40.6197 33.8484C40.6197 31.6322 38.8887 29.8356 36.7535 29.8356C36.0067 29.8356 35.3116 30.0593 34.7201 30.4401C33.6217 31.1477 32.8873 32.4073 32.8873 33.8484ZM36.754 31.3288C38.0927 31.3288 39.1816 32.4589 39.1816 33.8484C39.1816 35.2379 38.0927 36.368 36.754 36.368C35.4152 36.368 34.3264 35.2379 34.3264 33.8484C34.3264 32.4589 35.4152 31.3288 36.754 31.3288ZM35.2552 39.3622H38.2528C40.8705 39.3622 43 41.5729 43 44.2889H42.2819H41.5624C41.5624 42.3956 40.0779 40.8553 38.2538 40.8553H35.2557C33.4311 40.8553 31.9471 42.3956 31.9471 44.2889H31.2275H30.508C30.508 41.5724 32.6375 39.3622 35.2552 39.3622Z" fill="black"/>
</svg>
