<svg width="45" height="45" viewBox="0 0 45 45" fill="none" xmlns="http://www.w3.org/2000/svg">
<path d="M18.5192 7.09609C18 6.74994 17.6538 6.92302 17.4807 7.09609L13.1503 11.1478C12.5117 11.0284 11.8627 11.1565 11.423 11.5961C10.7307 12.2884 10.7307 13.4999 11.423 14.3653C11.513 14.4553 11.6307 14.5003 11.7363 14.5678L12.1153 18.8653C12.1153 19.2115 12.2884 19.5576 12.9807 19.5576C13.5 19.5576 13.8461 19.0384 13.8461 18.8653L14.1075 14.4121C14.1352 14.393 14.1663 14.3861 14.1923 14.3653C14.625 13.8253 14.7548 13.159 14.6475 12.5601L18.5192 8.13455C18.6923 7.96148 18.8653 7.44225 18.5192 7.09609Z" fill="black"/>
<path d="M34.6155 12.1153C35.654 12.1153 36.3463 11.423 36.3463 10.3845V5.1922C36.3463 4.15373 35.654 3.46143 34.6155 3.46143C33.5771 3.46143 32.8848 4.15373 32.8848 5.1922V10.3845C32.8848 11.423 33.5771 12.1153 34.6155 12.1153Z" fill="black"/>
<path d="M0 12.9808C0 20.0769 5.88462 25.9615 12.9808 25.9615C20.0769 25.9615 25.9615 20.0769 25.9615 12.9808C25.9615 5.88462 20.0769 0 12.9808 0C10.5577 0 8.30769 0.692308 6.40385 1.73077C7.09615 1.73077 7.61538 2.07692 7.96154 2.42308C8.30769 2.76923 8.48077 3.28846 8.65385 3.80769C10.0385 3.11538 11.4231 2.76923 12.9808 2.76923C18.5192 2.76923 23.1923 7.26923 23.1923 12.9808C23.1923 18.5192 18.6923 23.1923 12.9808 23.1923C7.45269 23.1923 2.78827 18.7096 2.77096 13.0137C2.83327 12.9963 2.87827 12.9998 2.94231 12.9808C2.94231 9.86539 4.32692 8.65385 4.32692 8.65385L5.71154 9.86538C5.88462 10.0385 6.05769 10.0385 6.23077 10.0385C6.40385 10.0385 6.57692 9.86539 6.57692 9.69231C7.09615 7.26923 6.92308 4.15385 6.92308 3.98077C6.92308 3.80769 6.75 3.63462 6.75 3.63462C6.57692 3.46154 6.57692 3.46154 6.40385 3.46154C6.23077 3.46154 3.28846 3.28846 0.519231 3.80769C0.346154 3.80769 0.173077 3.98077 0.173077 4.15385C0.173077 4.32692 0.173077 4.67308 0.346154 4.67308L1.90385 6.05769C1.90385 6.05769 1.43308 6.77942 0.983077 8.07058C0.335769 9.54519 0 11.205 0 12.9808Z" fill="black"/>
<path d="M22.5001 34.6155H19.0386V38.077H22.5001V34.6155Z" fill="black"/>
<path d="M15.5768 27.6924H12.1152V31.1539H15.5768V27.6924Z" fill="black"/>
<path d="M15.5768 34.6155H12.1152V38.077H15.5768V34.6155Z" fill="black"/>
<path d="M29.423 27.6924H25.9614V31.1539H29.423V27.6924Z" fill="black"/>
<path d="M29.423 34.6155H25.9614V38.077H29.423V34.6155Z" fill="black"/>
<path d="M29.423 20.7693H25.9614V24.2308H29.423V20.7693Z" fill="black"/>
<path d="M39.8076 6.9231H38.0768V10.3846C38.0768 12.2885 36.5191 13.8462 34.6153 13.8462C32.7114 13.8462 31.1537 12.2885 31.1537 10.3846V6.9231H26.3076C27.173 8.82694 27.6922 10.9039 27.6922 12.9808C27.6922 14.5385 27.5191 15.9231 26.9999 17.3077H41.5384V39.8077C41.5384 40.8462 40.8461 41.5385 39.8076 41.5385H8.65373C7.61527 41.5385 6.92297 40.8462 6.92297 39.8077V26.3077C5.71143 25.7885 4.49989 24.9231 3.46143 24.0577V39.6346C3.46143 42.5769 5.71143 44.8269 8.65373 44.8269H39.8076C42.7499 44.8269 44.9999 42.5769 44.9999 39.6346V12.1154C44.9999 9.1731 42.7499 6.9231 39.8076 6.9231Z" fill="black"/>
<path d="M22.5001 27.6924H19.0386V31.1539H22.5001V27.6924Z" fill="black"/>
<path d="M36.3463 20.7693H32.8848V24.2308H36.3463V20.7693Z" fill="black"/>
<path d="M36.3463 34.6155H32.8848V38.077H36.3463V34.6155Z" fill="black"/>
<path d="M36.3463 27.6924H32.8848V31.1539H36.3463V27.6924Z" fill="black"/>
</svg>
