<svg width="41" height="41" viewBox="0 0 41 41" fill="none" xmlns="http://www.w3.org/2000/svg">
<path d="M17.1539 25.4566L15.1777 27.43L15.6963 27.9519L3.08228 40.5057L0.310791 37.7504L12.921 25.1869L13.4397 25.6995L15.4217 23.7261C10.9395 18.4269 10.9395 10.6781 15.4217 5.374C20.5074 -0.649232 29.5386 -1.4311 35.5909 3.64405C41.6379 8.70953 42.4191 17.699 37.3285 23.7265C32.2373 29.7543 23.2067 30.5313 17.1539 25.4566ZM37.8237 14.5482C37.8237 8.25569 32.6975 3.13916 26.3744 3.13916C20.0517 3.13916 14.9192 8.25516 14.9192 14.5482C14.9192 20.8454 20.0517 25.9605 26.3744 25.9605C32.698 25.9605 37.8237 20.8459 37.8237 14.5482Z" fill="black"/>
</svg>
