<svg width="105" height="19" viewBox="0 0 105 19" fill="none" xmlns="http://www.w3.org/2000/svg">
<path d="M10.3711 13.5234C10.3711 12.8594 10.1367 12.3516 9.66797 12C9.19922 11.6406 8.35547 11.2656 7.13672 10.875C5.91797 10.4766 4.95312 10.0859 4.24219 9.70312C2.30469 8.65625 1.33594 7.24609 1.33594 5.47266C1.33594 4.55078 1.59375 3.73047 2.10938 3.01172C2.63281 2.28516 3.37891 1.71875 4.34766 1.3125C5.32422 0.90625 6.41797 0.703125 7.62891 0.703125C8.84766 0.703125 9.93359 0.925781 10.8867 1.37109C11.8398 1.80859 12.5781 2.42969 13.1016 3.23438C13.6328 4.03906 13.8984 4.95312 13.8984 5.97656H10.3828C10.3828 5.19531 10.1367 4.58984 9.64453 4.16016C9.15234 3.72266 8.46094 3.50391 7.57031 3.50391C6.71094 3.50391 6.04297 3.6875 5.56641 4.05469C5.08984 4.41406 4.85156 4.89062 4.85156 5.48438C4.85156 6.03906 5.12891 6.50391 5.68359 6.87891C6.24609 7.25391 7.07031 7.60547 8.15625 7.93359C10.1562 8.53516 11.6133 9.28125 12.5273 10.1719C13.4414 11.0625 13.8984 12.1719 13.8984 13.5C13.8984 14.9766 13.3398 16.1367 12.2227 16.9805C11.1055 17.8164 9.60156 18.2344 7.71094 18.2344C6.39844 18.2344 5.20312 17.9961 4.125 17.5195C3.04688 17.0352 2.22266 16.375 1.65234 15.5391C1.08984 14.7031 0.808594 13.7344 0.808594 12.6328H4.33594C4.33594 14.5156 5.46094 15.457 7.71094 15.457C8.54688 15.457 9.19922 15.2891 9.66797 14.9531C10.1367 14.6094 10.3711 14.1328 10.3711 13.5234ZM21.9023 18.2344C20.043 18.2344 18.5273 17.6641 17.3555 16.5234C16.1914 15.3828 15.6094 13.8633 15.6094 11.9648V11.6367C15.6094 10.3633 15.8555 9.22656 16.3477 8.22656C16.8398 7.21875 17.5352 6.44531 18.4336 5.90625C19.3398 5.35938 20.3711 5.08594 21.5273 5.08594C23.2617 5.08594 24.625 5.63281 25.6172 6.72656C26.6172 7.82031 27.1172 9.37109 27.1172 11.3789V12.7617H19.043C19.1523 13.5898 19.4805 14.2539 20.0273 14.7539C20.582 15.2539 21.2812 15.5039 22.125 15.5039C23.4297 15.5039 24.4492 15.0312 25.1836 14.0859L26.8477 15.9492C26.3398 16.668 25.6523 17.2305 24.7852 17.6367C23.918 18.0352 22.957 18.2344 21.9023 18.2344ZM21.5156 7.82812C20.8438 7.82812 20.2969 8.05469 19.875 8.50781C19.4609 8.96094 19.1953 9.60938 19.0781 10.4531H23.7891V10.1836C23.7734 9.43359 23.5703 8.85547 23.1797 8.44922C22.7891 8.03516 22.2344 7.82812 21.5156 7.82812ZM32.625 18H29.2266V0H32.625V18ZM41.2617 18.2344C39.4023 18.2344 37.8867 17.6641 36.7148 16.5234C35.5508 15.3828 34.9688 13.8633 34.9688 11.9648V11.6367C34.9688 10.3633 35.2148 9.22656 35.707 8.22656C36.1992 7.21875 36.8945 6.44531 37.793 5.90625C38.6992 5.35938 39.7305 5.08594 40.8867 5.08594C42.6211 5.08594 43.9844 5.63281 44.9766 6.72656C45.9766 7.82031 46.4766 9.37109 46.4766 11.3789V12.7617H38.4023C38.5117 13.5898 38.8398 14.2539 39.3867 14.7539C39.9414 15.2539 40.6406 15.5039 41.4844 15.5039C42.7891 15.5039 43.8086 15.0312 44.543 14.0859L46.207 15.9492C45.6992 16.668 45.0117 17.2305 44.1445 17.6367C43.2773 18.0352 42.3164 18.2344 41.2617 18.2344ZM40.875 7.82812C40.2031 7.82812 39.6562 8.05469 39.2344 8.50781C38.8203 8.96094 38.5547 9.60938 38.4375 10.4531H43.1484V10.1836C43.1328 9.43359 42.9297 8.85547 42.5391 8.44922C42.1484 8.03516 41.5938 7.82812 40.875 7.82812ZM53.6836 15.5039C54.3086 15.5039 54.8164 15.332 55.207 14.9883C55.5977 14.6445 55.8008 14.1875 55.8164 13.6172H58.9922C58.9844 14.4766 58.75 15.2656 58.2891 15.9844C57.8281 16.6953 57.1953 17.25 56.3906 17.6484C55.5938 18.0391 54.7109 18.2344 53.7422 18.2344C51.9297 18.2344 50.5 17.6602 49.4531 16.5117C48.4062 15.3555 47.8828 13.7617 47.8828 11.7305V11.5078C47.8828 9.55469 48.4023 7.99609 49.4414 6.83203C50.4805 5.66797 51.9062 5.08594 53.7188 5.08594C55.3047 5.08594 56.5742 5.53906 57.5273 6.44531C58.4883 7.34375 58.9766 8.54297 58.9922 10.043H55.8164C55.8008 9.38672 55.5977 8.85547 55.207 8.44922C54.8164 8.03516 54.3008 7.82812 53.6602 7.82812C52.8711 7.82812 52.2734 8.11719 51.8672 8.69531C51.4688 9.26562 51.2695 10.1953 51.2695 11.4844V11.8359C51.2695 13.1406 51.4688 14.0781 51.8672 14.6484C52.2656 15.2188 52.8711 15.5039 53.6836 15.5039ZM73.9922 3.78516H68.7656V18H65.25V3.78516H60.0938V0.9375H73.9922V3.78516ZM81.1641 18C81.0078 17.6953 80.8945 17.3164 80.8242 16.8633C80.0039 17.7773 78.9375 18.2344 77.625 18.2344C76.3828 18.2344 75.3516 17.875 74.5312 17.1562C73.7188 16.4375 73.3125 15.5312 73.3125 14.4375C73.3125 13.0938 73.8086 12.0625 74.8008 11.3438C75.8008 10.625 77.2422 10.2617 79.125 10.2539H80.6836V9.52734C80.6836 8.94141 80.5312 8.47266 80.2266 8.12109C79.9297 7.76953 79.457 7.59375 78.8086 7.59375C78.2383 7.59375 77.7891 7.73047 77.4609 8.00391C77.1406 8.27734 76.9805 8.65234 76.9805 9.12891H73.5938C73.5938 8.39453 73.8203 7.71484 74.2734 7.08984C74.7266 6.46484 75.3672 5.97656 76.1953 5.625C77.0234 5.26562 77.9531 5.08594 78.9844 5.08594C80.5469 5.08594 81.7852 5.48047 82.6992 6.26953C83.6211 7.05078 84.082 8.15234 84.082 9.57422V15.0703C84.0898 16.2734 84.2578 17.1836 84.5859 17.8008V18H81.1641ZM78.3633 15.6445C78.8633 15.6445 79.3242 15.5352 79.7461 15.3164C80.168 15.0898 80.4805 14.7891 80.6836 14.4141V12.2344H79.418C77.7227 12.2344 76.8203 12.8203 76.7109 13.9922L76.6992 14.1914C76.6992 14.6133 76.8477 14.9609 77.1445 15.2344C77.4414 15.5078 77.8477 15.6445 78.3633 15.6445ZM90.2578 18H86.8594V0H90.2578V18ZM97.6641 12.9141L96.4453 14.1328V18H93.0586V0H96.4453V9.97266L97.1016 9.12891L100.348 5.32031H104.414L99.832 10.6055L104.812 18H100.922L97.6641 12.9141Z" fill="white"/>
</svg>
